<svg width="33" height="33" viewBox="0 0 33 33" fill="none" xmlns="http://www.w3.org/2000/svg">
<path d="M24.0069 11.8328V14.1793C24.0069 14.3903 23.9924 14.6003 23.9784 14.8103C24.8379 14.7003 25.5069 13.9718 25.5069 13.0828C25.5069 12.3933 24.9464 11.8328 24.2569 11.8328H24.0069ZM23.6379 18.3148L21.8189 16.2633C20.6514 17.2553 19.8919 18.5783 19.6309 20.0508L22.3179 20.6003L23.6379 18.3148ZM25.1129 19.7608L24.0009 18.6858L22.8209 20.7293L24.3079 21.1548L25.1129 19.7608Z" fill="#282828"/>
<path d="M21.6559 15.7497C21.7604 15.6667 21.9459 15.6532 22.0334 15.7517L23.0644 16.9142C23.3524 16.0262 23.5069 15.1097 23.5069 14.1797V11.8297C21.2755 11.7717 19.1321 10.9474 17.4369 9.49524L16.7569 8.91174L16.0769 9.49474C14.3817 10.9469 12.2382 11.7712 10.0069 11.8292V14.1792C10.0037 15.5162 10.3028 16.8366 10.882 18.0416C11.4612 19.2466 12.3054 20.3051 13.3514 21.1377C14.3139 21.9082 15.5234 22.3327 16.7569 22.3327C17.9904 22.3327 19.1999 21.9082 20.1624 21.1377C20.3104 21.0197 20.4569 20.8922 20.6019 20.7597L19.2964 20.4927C19.234 20.4799 19.1789 20.4438 19.1423 20.3918C19.1056 20.3398 19.0901 20.2758 19.0989 20.2127C19.3437 18.451 20.2598 16.8519 21.6559 15.7497ZM12.1184 13.7907C12.0653 13.7531 12.029 13.6963 12.0172 13.6324C12.0053 13.5684 12.0188 13.5024 12.0549 13.4482C12.0909 13.3941 12.1466 13.3562 12.2102 13.3424C12.2738 13.3287 12.3402 13.3403 12.3954 13.3747C12.7982 13.6442 13.272 13.788 13.7566 13.788C14.2413 13.788 14.715 13.6442 15.1179 13.3747C15.1452 13.3566 15.1758 13.3439 15.208 13.3376C15.2402 13.3312 15.2733 13.3313 15.3055 13.3377C15.3377 13.3442 15.3683 13.3569 15.3955 13.3752C15.4228 13.3935 15.4462 13.4169 15.4644 13.4442C15.4825 13.4716 15.4952 13.5022 15.5015 13.5344C15.5079 13.5666 15.5078 13.5997 15.5014 13.6319C15.4949 13.6641 15.4822 13.6947 15.4639 13.7219C15.4456 13.7492 15.4222 13.7726 15.3949 13.7907C14.9099 14.1146 14.3398 14.2875 13.7566 14.2875C13.1734 14.2875 12.6033 14.1146 12.1184 13.7907ZM16.8954 17.8747C16.9237 17.8925 16.9483 17.9157 16.9675 17.943C16.9867 17.9704 17.0003 18.0014 17.0073 18.0341C17.0144 18.0667 17.0148 18.1005 17.0086 18.1334C17.0024 18.1662 16.9896 18.1975 16.9711 18.2254C16.9525 18.2532 16.9286 18.277 16.9007 18.2955C16.8727 18.3139 16.8414 18.3265 16.8085 18.3326C16.7756 18.3387 16.7419 18.3382 16.7092 18.331C16.6765 18.3238 16.6456 18.3101 16.6184 18.2907L15.1184 17.2907C15.084 17.268 15.0558 17.2371 15.0363 17.2008C15.0169 17.1645 15.0067 17.1239 15.0067 17.0827C15.0067 17.0415 15.0169 17.001 15.0363 16.9647C15.0558 16.9284 15.084 16.8975 15.1184 16.8747L15.3704 16.7067C15.7203 16.4739 16.0072 16.1581 16.2055 15.7875C16.4038 15.4169 16.5073 15.0031 16.5069 14.5827C16.5069 14.5164 16.5332 14.4529 16.5801 14.406C16.627 14.3591 16.6906 14.3327 16.7569 14.3327C16.8232 14.3327 16.8868 14.3591 16.9336 14.406C16.9805 14.4529 17.0069 14.5164 17.0069 14.5827C17.0074 15.0732 16.8894 15.5566 16.6631 15.9918C16.4368 16.4269 16.1087 16.801 15.7069 17.0822L16.8954 17.8747ZM18.1184 13.7907C18.0653 13.7531 18.029 13.6963 18.0172 13.6324C18.0053 13.5684 18.0188 13.5024 18.0549 13.4482C18.0909 13.3941 18.1466 13.3562 18.2102 13.3424C18.2738 13.3287 18.3402 13.3403 18.3954 13.3747C18.798 13.6446 19.2719 13.7887 19.7566 13.7887C20.2414 13.7887 20.7152 13.6446 21.1179 13.3747C21.1451 13.3554 21.176 13.3417 21.2087 13.3345C21.2414 13.3273 21.2751 13.3268 21.308 13.3329C21.3409 13.339 21.3722 13.3516 21.4002 13.37C21.4281 13.3884 21.452 13.4123 21.4706 13.4401C21.4891 13.468 21.5019 13.4992 21.5081 13.5321C21.5143 13.565 21.5139 13.5987 21.5068 13.6314C21.4998 13.6641 21.4862 13.6951 21.467 13.7224C21.4478 13.7498 21.4232 13.773 21.3949 13.7907C20.91 14.1148 20.3398 14.2878 19.7566 14.2878C19.1734 14.2878 18.6033 14.1148 18.1184 13.7907Z" fill="#282828"/>
<path d="M17.7622 9.11476C19.4317 10.5456 21.5579 11.3323 23.7567 11.3328H24.2567C24.4712 11.3328 24.6747 11.3768 24.8652 11.4483C24.9586 11.1693 25.0064 10.877 25.0067 10.5828C25.0067 10.3358 24.9912 10.0923 24.9697 9.85076C24.5672 9.94776 24.1587 10.0028 23.7512 10.0028C22.9197 10.0028 22.0947 9.80276 21.3427 9.40976L21.1412 9.30426C21.1121 9.28906 21.0862 9.26828 21.0651 9.24309C21.044 9.2179 21.0281 9.18881 21.0183 9.15747C21.0084 9.12613 21.0049 9.09316 21.0078 9.06043C21.0107 9.02771 21.02 8.99588 21.0352 8.96676C21.0504 8.93764 21.0712 8.9118 21.0963 8.89071C21.1215 8.86963 21.1506 8.85371 21.182 8.84387C21.2133 8.83402 21.2463 8.83045 21.279 8.83335C21.3117 8.83625 21.3436 8.84556 21.3727 8.86076L21.5742 8.96626C22.5986 9.50204 23.7848 9.64058 24.9052 9.35526C24.3907 5.93026 21.7732 3.18476 18.4067 2.49876C18.9217 3.9599 19.9833 5.16435 21.3682 5.85876C21.3978 5.87325 21.4243 5.89346 21.4461 5.91823C21.4679 5.943 21.4846 5.97184 21.4951 6.00309C21.5057 6.03433 21.5101 6.06736 21.5078 6.10028C21.5056 6.1332 21.4969 6.16534 21.4821 6.19487C21.4674 6.2244 21.447 6.25073 21.4221 6.27233C21.3971 6.29393 21.3682 6.31038 21.3369 6.32074C21.3055 6.33109 21.2725 6.33514 21.2396 6.33266C21.2067 6.33018 21.1746 6.3212 21.1452 6.30626C20.3614 5.91388 19.6653 5.36662 19.0991 4.69758C18.5328 4.02853 18.1081 3.25161 17.8507 2.41376C17.4882 2.36267 17.1227 2.33561 16.7567 2.33276C16.4372 2.33276 16.1237 2.35526 15.8137 2.39076C16.2246 3.71713 16.9522 4.92353 17.9337 5.90576C17.9806 5.95271 18.007 6.01638 18.007 6.08276C18.007 6.14915 17.9806 6.21282 17.9337 6.25976C17.8867 6.30671 17.8231 6.33308 17.7567 6.33308C17.6903 6.33308 17.6266 6.30671 17.5797 6.25976C16.523 5.20202 15.7447 3.89908 15.3142 2.46726C14.7042 2.57526 14.1147 2.74376 13.5587 2.97826C14.4042 4.94715 15.5424 6.77697 16.9347 8.40576L17.7622 9.11476ZM28.8817 23.7323C29.0562 23.8318 29.2582 23.8593 29.4507 23.8068C29.5459 23.7816 29.6352 23.7378 29.7134 23.6779C29.7916 23.618 29.8571 23.5432 29.9062 23.4578C30.0052 23.2853 30.032 23.0807 29.9805 22.8886C29.9291 22.6965 29.8037 22.5326 29.6317 22.4328L25.5177 20.0578L24.7677 21.3573L28.8817 23.7323ZM9.25667 11.3328H9.75667C11.9542 11.3328 14.0827 10.5453 15.7517 9.11476L16.4082 8.55226C16.0634 8.14099 15.7339 7.71721 15.4202 7.28176L15.1567 7.63276C14.7597 8.15942 14.2461 8.58698 13.6563 8.88193C13.0664 9.17687 12.4162 9.33118 11.7567 9.33276C11.6904 9.33276 11.6268 9.30642 11.5799 9.25954C11.533 9.21266 11.5067 9.14907 11.5067 9.08276C11.5067 9.01646 11.533 8.95287 11.5799 8.90599C11.6268 8.8591 11.6904 8.83276 11.7567 8.83276C12.3386 8.83141 12.9123 8.69528 13.4328 8.43503C13.9533 8.17478 14.4064 7.7975 14.7567 7.33276L15.0567 6.93276C15.0765 6.90635 15.1013 6.88409 15.1297 6.86726C14.8852 6.50971 14.6516 6.14488 14.4292 5.77326L14.1432 6.05676C13.8951 6.30365 13.6008 6.49926 13.2771 6.6324C12.9534 6.76555 12.6067 6.83363 12.2567 6.83276C12.1904 6.83276 12.1268 6.80642 12.0799 6.75954C12.033 6.71266 12.0067 6.64907 12.0067 6.58276C12.0067 6.51646 12.033 6.45287 12.0799 6.40599C12.1268 6.3591 12.1904 6.33276 12.2567 6.33276C12.5415 6.33348 12.8236 6.27808 13.087 6.16973C13.3504 6.06137 13.5898 5.90219 13.7917 5.70126L14.1677 5.32876C13.776 4.63715 13.4221 3.92477 13.1077 3.19476C10.3862 4.54476 8.50667 7.34476 8.50667 10.5828C8.50667 10.8788 8.55517 11.1683 8.64867 11.4478C8.83867 11.3768 9.04217 11.3328 9.25667 11.3328ZM9.52967 14.8098C9.51497 14.5999 9.5073 14.3896 9.50667 14.1793V11.8328H9.25667C8.92527 11.8332 8.60756 11.965 8.37323 12.1993C8.13889 12.4337 8.00707 12.7514 8.00667 13.0828C8.00667 13.9698 8.67267 14.6973 9.52967 14.8098ZM27.1332 26.4348L24.2592 25.7158C23.2811 25.4706 22.4013 24.9326 21.7372 24.1739C21.0732 23.4151 20.6566 22.4717 20.5432 21.4698C20.5202 21.4888 20.4972 21.5098 20.4742 21.5283C19.4237 22.3693 18.1032 22.8328 16.7567 22.8328C15.4102 22.8328 14.0897 22.3693 13.0387 21.5288C13.0222 21.5158 13.0067 21.5013 12.9907 21.4878C12.8287 23.5183 11.4577 25.2333 9.47617 25.8278L6.18067 26.8163C5.30193 27.0755 4.52533 27.6011 3.95806 28.3206C3.39078 29.04 3.06081 29.9178 3.01367 30.8328H30.5067V30.7558C30.5079 29.7622 30.1764 28.7968 29.5649 28.0136C28.9535 27.2305 28.0974 26.6746 27.1332 26.4348ZM22.7567 28.3328H20.9927C19.5682 28.3328 18.1427 28.6698 16.8687 29.3063C16.8339 29.3235 16.7955 29.3325 16.7567 29.3325C16.7178 29.3325 16.6795 29.3235 16.6447 29.3063C15.3635 28.6675 13.9518 28.3343 12.5202 28.3328H11.2567C11.1904 28.3328 11.1268 28.3064 11.0799 28.2595C11.033 28.2127 11.0067 28.1491 11.0067 28.0828C11.0067 28.0165 11.033 27.9529 11.0799 27.906C11.1268 27.8591 11.1904 27.8328 11.2567 27.8328H12.5207C13.9807 27.8328 15.4427 28.1683 16.7567 28.8038C18.078 28.1665 19.5257 27.8346 20.9927 27.8328H22.7567C22.823 27.8328 22.8866 27.8591 22.9335 27.906C22.9803 27.9529 23.0067 28.0165 23.0067 28.0828C23.0067 28.1491 22.9803 28.2127 22.9335 28.2595C22.8866 28.3064 22.823 28.3328 22.7567 28.3328Z" fill="#282828"/>
<path d="M28.2563 17.1448C28.8429 17.1448 29.3183 16.6693 29.3183 16.0828C29.3183 15.4962 28.8429 15.0208 28.2563 15.0208C27.6698 15.0208 27.1943 15.4962 27.1943 16.0828C27.1943 16.6693 27.6698 17.1448 28.2563 17.1448Z" fill="#282828"/>
<path d="M7.75634 22.1448C8.34286 22.1448 8.81834 21.6693 8.81834 21.0828C8.81834 20.4962 8.34286 20.0208 7.75634 20.0208C7.16981 20.0208 6.69434 20.4962 6.69434 21.0828C6.69434 21.6693 7.16981 22.1448 7.75634 22.1448Z" fill="#282828"/>
</svg>
