<svg width="33" height="33" viewBox="0 0 33 33" fill="none" xmlns="http://www.w3.org/2000/svg">
<path d="M23.4512 11.3209V13.6674C23.4512 13.8784 23.4367 14.0884 23.4227 14.2984C24.2822 14.1884 24.9512 13.4599 24.9512 12.5709C24.9512 11.8814 24.3907 11.3209 23.7012 11.3209H23.4512ZM23.0822 17.8029L21.2632 15.7514C20.0957 16.7434 19.3362 18.0664 19.0752 19.5389L21.7622 20.0884L23.0822 17.8029ZM24.5572 19.2489L23.4452 18.1739L22.2652 20.2174L23.7522 20.6429L24.5572 19.2489Z" fill="#FFF2F1"/>
<path d="M21.1002 15.2379C21.2047 15.1549 21.3902 15.1414 21.4777 15.2399L22.5087 16.4024C22.7967 15.5144 22.9512 14.5979 22.9512 13.6679V11.3179C20.7198 11.2599 18.5764 10.4356 16.8812 8.9834L16.2012 8.3999L15.5212 8.9829C13.826 10.4351 11.6826 11.2594 9.4512 11.3174V13.6674C9.448 15.0044 9.74718 16.3248 10.3263 17.5298C10.9055 18.7348 11.7497 19.7932 12.7957 20.6259C13.7582 21.3964 14.9677 21.8209 16.2012 21.8209C17.4347 21.8209 18.6442 21.3964 19.6067 20.6259C19.7547 20.5079 19.9012 20.3804 20.0462 20.2479L18.7407 19.9809C18.6784 19.9681 18.6233 19.932 18.5866 19.88C18.5499 19.8279 18.5344 19.7639 18.5432 19.7009C18.788 17.9391 19.7041 16.3401 21.1002 15.2379ZM11.5627 13.2789C11.5096 13.2413 11.4733 13.1845 11.4615 13.1205C11.4496 13.0566 11.4632 12.9905 11.4992 12.9364C11.5353 12.8823 11.591 12.8443 11.6545 12.8306C11.7181 12.8169 11.7845 12.8285 11.8397 12.8629C12.2425 13.1323 12.7163 13.2762 13.2009 13.2762C13.6856 13.2762 14.1593 13.1323 14.5622 12.8629C14.5895 12.8447 14.6201 12.8321 14.6523 12.8257C14.6845 12.8194 14.7177 12.8194 14.7498 12.8259C14.782 12.8323 14.8126 12.8451 14.8399 12.8633C14.8671 12.8816 14.8905 12.9051 14.9087 12.9324C14.9269 12.9597 14.9395 12.9903 14.9459 13.0225C14.9522 13.0547 14.9522 13.0879 14.9457 13.12C14.9393 13.1522 14.9265 13.1828 14.9083 13.2101C14.89 13.2373 14.8665 13.2607 14.8392 13.2789C14.3542 13.6028 13.7841 13.7756 13.2009 13.7756C12.6178 13.7756 12.0477 13.6028 11.5627 13.2789ZM16.3397 17.3629C16.3681 17.3806 16.3926 17.4038 16.4118 17.4312C16.4311 17.4586 16.4446 17.4895 16.4517 17.5222C16.4587 17.5549 16.4592 17.5887 16.4529 17.6215C16.4467 17.6544 16.4339 17.6857 16.4154 17.7135C16.3969 17.7414 16.3729 17.7652 16.345 17.7836C16.3171 17.802 16.2858 17.8147 16.2529 17.8208C16.22 17.8269 16.1862 17.8263 16.1535 17.8191C16.1209 17.8119 16.09 17.7982 16.0627 17.7789L14.5627 16.7789C14.5284 16.7562 14.5002 16.7252 14.4807 16.689C14.4612 16.6527 14.451 16.6121 14.451 16.5709C14.451 16.5297 14.4612 16.4891 14.4807 16.4529C14.5002 16.4166 14.5284 16.3857 14.5627 16.3629L14.8147 16.1949C15.1646 15.9621 15.4515 15.6463 15.6498 15.2757C15.8481 14.9051 15.9516 14.4912 15.9512 14.0709C15.9512 14.0046 15.9775 13.941 16.0244 13.8941C16.0713 13.8472 16.1349 13.8209 16.2012 13.8209C16.2675 13.8209 16.3311 13.8472 16.378 13.8941C16.4249 13.941 16.4512 14.0046 16.4512 14.0709C16.4517 14.5614 16.3338 15.0448 16.1074 15.4799C15.8811 15.9151 15.5531 16.2892 15.1512 16.5704L16.3397 17.3629ZM17.5627 13.2789C17.5096 13.2413 17.4733 13.1845 17.4615 13.1205C17.4496 13.0566 17.4632 12.9905 17.4992 12.9364C17.5353 12.8823 17.591 12.8443 17.6545 12.8306C17.7181 12.8169 17.7845 12.8285 17.8397 12.8629C18.2424 13.1328 18.7162 13.2769 19.2009 13.2769C19.6857 13.2769 20.1595 13.1328 20.5622 12.8629C20.5895 12.8436 20.6204 12.8299 20.653 12.8227C20.6857 12.8155 20.7195 12.8149 20.7524 12.821C20.7853 12.8271 20.8166 12.8398 20.8445 12.8582C20.8724 12.8766 20.8964 12.9004 20.9149 12.9283C20.9334 12.9561 20.9462 12.9874 20.9524 13.0203C20.9587 13.0531 20.9582 13.0869 20.9512 13.1196C20.9441 13.1523 20.9306 13.1832 20.9113 13.2106C20.8921 13.238 20.8676 13.2612 20.8392 13.2789C20.3543 13.603 19.7842 13.7759 19.2009 13.7759C18.6177 13.7759 18.0476 13.603 17.5627 13.2789Z" fill="#FFF2F1"/>
<path d="M17.2065 8.60292C18.8761 10.0338 21.0022 10.8204 23.201 10.8209H23.701C23.9155 10.8209 24.119 10.8649 24.3095 10.9364C24.4029 10.6574 24.4507 10.3652 24.451 10.0709C24.451 9.82392 24.4355 9.58042 24.414 9.33892C24.0115 9.43592 23.603 9.49092 23.1955 9.49092C22.364 9.49092 21.539 9.29092 20.787 8.89792L20.5855 8.79242C20.5564 8.77722 20.5305 8.75644 20.5095 8.73125C20.4884 8.70606 20.4725 8.67697 20.4626 8.64563C20.4528 8.61429 20.4492 8.58131 20.4521 8.54859C20.455 8.51587 20.4643 8.48404 20.4795 8.45492C20.4947 8.4258 20.5155 8.39996 20.5407 8.37887C20.5659 8.35779 20.595 8.34187 20.6263 8.33202C20.6576 8.32218 20.6906 8.31861 20.7233 8.32151C20.7561 8.32441 20.7879 8.33372 20.817 8.34892L21.0185 8.45442C22.0429 8.9902 23.2292 9.12873 24.3495 8.84342C23.835 5.41842 21.2175 2.67292 17.851 1.98692C18.366 3.44806 19.4276 4.65251 20.8125 5.34692C20.8422 5.36141 20.8686 5.38162 20.8904 5.40639C20.9122 5.43116 20.9289 5.46 20.9395 5.49124C20.9501 5.52249 20.9544 5.55552 20.9522 5.58844C20.9499 5.62135 20.9412 5.6535 20.9265 5.68303C20.9118 5.71256 20.8914 5.73889 20.8664 5.76049C20.8415 5.78209 20.8125 5.79854 20.7812 5.8089C20.7499 5.81925 20.7168 5.8233 20.6839 5.82082C20.651 5.81834 20.6189 5.80936 20.5895 5.79442C19.8057 5.40203 19.1097 4.85478 18.5434 4.18573C17.9772 3.51669 17.5525 2.73976 17.295 1.90192C16.9325 1.85083 16.5671 1.82377 16.201 1.82092C15.8815 1.82092 15.568 1.84342 15.258 1.87892C15.6689 3.20529 16.3965 4.41169 17.378 5.39392C17.425 5.44087 17.4513 5.50453 17.4513 5.57092C17.4513 5.63731 17.425 5.70098 17.378 5.74792C17.3311 5.79487 17.2674 5.82124 17.201 5.82124C17.1346 5.82124 17.071 5.79487 17.024 5.74792C15.9673 4.69018 15.189 3.38724 14.7585 1.95542C14.1485 2.06342 13.559 2.23192 13.003 2.46642C13.8485 4.43531 14.9867 6.26513 16.379 7.89392L17.2065 8.60292ZM28.326 23.2204C28.5005 23.3199 28.7025 23.3474 28.895 23.2949C28.9902 23.2698 29.0795 23.2259 29.1577 23.166C29.2359 23.1061 29.3014 23.0313 29.3505 22.9459C29.4496 22.7735 29.4763 22.5688 29.4249 22.3768C29.3734 22.1847 29.248 22.0208 29.076 21.9209L24.962 19.5459L24.212 20.8454L28.326 23.2204ZM8.70101 10.8209H9.20101C11.3985 10.8209 13.527 10.0334 15.196 8.60292L15.8525 8.04042C15.5077 7.62915 15.1782 7.20537 14.8645 6.76992L14.601 7.12092C14.204 7.64758 13.6905 8.07514 13.1006 8.37009C12.5107 8.66503 11.8605 8.81934 11.201 8.82092C11.1347 8.82092 11.0711 8.79458 11.0242 8.7477C10.9773 8.70082 10.951 8.63723 10.951 8.57092C10.951 8.50462 10.9773 8.44103 11.0242 8.39415C11.0711 8.34726 11.1347 8.32092 11.201 8.32092C11.7829 8.31957 12.3566 8.18343 12.8771 7.92319C13.3976 7.66294 13.8508 7.28566 14.201 6.82092L14.501 6.42092C14.5208 6.39451 14.5456 6.37225 14.574 6.35542C14.3296 5.99787 14.096 5.63304 13.8735 5.26142L13.5875 5.54492C13.3394 5.79181 13.0451 5.98742 12.7214 6.12056C12.3978 6.25371 12.051 6.32179 11.701 6.32092C11.6347 6.32092 11.5711 6.29458 11.5242 6.2477C11.4773 6.20082 11.451 6.13723 11.451 6.07092C11.451 6.00462 11.4773 5.94103 11.5242 5.89415C11.5711 5.84726 11.6347 5.82092 11.701 5.82092C11.9858 5.82164 12.268 5.76624 12.5313 5.65789C12.7947 5.54953 13.0342 5.39035 13.236 5.18942L13.612 4.81692C13.2203 4.12531 12.8664 3.41293 12.552 2.68292C9.83051 4.03292 7.95101 6.83292 7.95101 10.0709C7.95101 10.3669 7.99951 10.6564 8.09301 10.9359C8.28301 10.8649 8.48651 10.8209 8.70101 10.8209ZM8.97401 14.2979C8.95931 14.0881 8.95164 13.8778 8.95101 13.6674V11.3209H8.70101C8.36961 11.3213 8.0519 11.4531 7.81756 11.6875C7.58323 11.9218 7.45141 12.2395 7.45101 12.5709C7.45101 13.4579 8.11701 14.1854 8.97401 14.2979ZM26.5775 25.9229L23.7035 25.2039C22.7255 24.9587 21.8456 24.4208 21.1815 23.662C20.5175 22.9032 20.1009 21.9598 19.9875 20.9579C19.9645 20.9769 19.9415 20.9979 19.9185 21.0164C18.868 21.8574 17.5475 22.3209 16.201 22.3209C14.8545 22.3209 13.534 21.8574 12.483 21.0169C12.4665 21.0039 12.451 20.9894 12.435 20.9759C12.273 23.0064 10.902 24.7214 8.92051 25.3159L5.62501 26.3044C4.74627 26.5637 3.96967 27.0893 3.40239 27.8087C2.83512 28.5282 2.50514 29.406 2.45801 30.3209H29.951V30.2439C29.9522 29.2503 29.6207 28.285 29.0093 27.5018C28.3978 26.7186 27.5417 26.1628 26.5775 25.9229ZM22.201 27.8209H20.437C19.0125 27.8209 17.587 28.1579 16.313 28.7944C16.2782 28.8117 16.2399 28.8206 16.201 28.8206C16.1622 28.8206 16.1238 28.8117 16.089 28.7944C14.8078 28.1556 13.3961 27.8224 11.9645 27.8209H10.701C10.6347 27.8209 10.5711 27.7946 10.5242 27.7477C10.4773 27.7008 10.451 27.6372 10.451 27.5709C10.451 27.5046 10.4773 27.441 10.5242 27.3941C10.5711 27.3473 10.6347 27.3209 10.701 27.3209H11.965C13.425 27.3209 14.887 27.6564 16.201 28.2919C17.5223 27.6546 18.9701 27.3228 20.437 27.3209H22.201C22.2673 27.3209 22.3309 27.3473 22.3778 27.3941C22.4247 27.441 22.451 27.5046 22.451 27.5709C22.451 27.6372 22.4247 27.7008 22.3778 27.7477C22.3309 27.7946 22.2673 27.8209 22.201 27.8209Z" fill="#FFF2F1"/>
<path d="M27.7007 16.6329C28.2872 16.6329 28.7627 16.1574 28.7627 15.5709C28.7627 14.9844 28.2872 14.5089 27.7007 14.5089C27.1141 14.5089 26.6387 14.9844 26.6387 15.5709C26.6387 16.1574 27.1141 16.6329 27.7007 16.6329Z" fill="#FFF2F1"/>
<path d="M7.20067 21.6329C7.7872 21.6329 8.26267 21.1574 8.26267 20.5709C8.26267 19.9844 7.7872 19.5089 7.20067 19.5089C6.61415 19.5089 6.13867 19.9844 6.13867 20.5709C6.13867 21.1574 6.61415 21.6329 7.20067 21.6329Z" fill="#FFF2F1"/>
</svg>
