<svg width="32" height="33" viewBox="0 0 32 33" fill="none" xmlns="http://www.w3.org/2000/svg">
<path d="M12.5919 19.0894C15.3226 19.0894 17.5412 16.1774 17.5412 12.5987C17.5412 10.2627 16.5866 8.10274 15.0399 6.95607C14.9767 6.90661 14.9027 6.87265 14.824 6.85691C14.7453 6.84116 14.664 6.84407 14.5866 6.8654C14.4266 6.90807 14.2986 7.02007 14.2346 7.1694C13.0239 9.93207 10.7412 11.7454 8.12258 12.0227C7.86124 12.0547 7.65858 12.2787 7.64791 12.5454L7.64258 12.5987C7.64258 16.1774 9.86658 19.0894 12.5919 19.0894Z" fill="#282828"/>
<path d="M10.4591 23.7454L9.30174 24.4974C9.52574 25.116 10.9337 27.2494 12.6137 28.908C14.3204 27.292 15.6537 25.148 15.8831 24.4974L14.7257 23.7454C14.6524 23.6983 14.592 23.6337 14.5501 23.5573C14.5081 23.4809 14.486 23.3952 14.4857 23.308C14.4804 23.132 14.5657 22.9614 14.7151 22.86L16.2991 21.7614L15.7817 18.9987C14.8537 19.7294 13.7657 20.156 12.5924 20.156C11.4137 20.156 10.3204 19.724 9.39241 18.988L8.88574 21.7614L10.4751 22.86C10.6191 22.9614 10.7044 23.132 10.7044 23.308C10.6991 23.484 10.6084 23.6494 10.4591 23.7454Z" fill="#282828"/>
<path d="M11.8029 29.6067C9.57361 27.3507 8.18161 24.5027 8.15495 24.3961C8.12877 24.2889 8.13682 24.1763 8.17795 24.0739C8.21908 23.9716 8.29123 23.8847 8.38428 23.8254L9.21095 23.2867L7.97361 22.4281C7.79228 22.3001 7.70695 22.0707 7.76028 21.8574L8.11228 19.9854C7.94161 20.0654 7.75495 20.1241 7.56295 20.1667C2.57628 21.2281 2.73095 24.2681 2.89095 27.4841C2.92295 28.1027 2.94961 28.7374 2.94961 29.3827C2.94961 29.6814 3.18961 29.9161 3.48295 29.9161H12.1176C12.0109 29.8147 11.9043 29.7134 11.8029 29.6067ZM17.6216 20.1667C17.4243 20.1241 17.2376 20.0601 17.0616 19.9801L17.4243 21.8574C17.4829 22.0707 17.3976 22.3001 17.2109 22.4281L15.9736 23.2867L16.8056 23.8254C16.9976 23.9481 17.0883 24.1774 17.0349 24.3961C17.0083 24.5081 15.7229 27.4041 13.4083 29.6334C13.3123 29.7294 13.2109 29.8254 13.1043 29.9161H21.7016C21.9949 29.9161 22.2349 29.6814 22.2349 29.3827C22.2349 28.7374 22.2669 28.1027 22.2989 27.4841C22.4589 24.2681 22.6083 21.2281 17.6216 20.1667ZM27.0883 10.6201C25.7389 9.79341 23.7923 9.13741 22.7043 9.64941C21.8989 10.0334 21.6216 11.0361 21.5736 12.1027V12.8387C21.6163 13.7987 21.7923 14.7054 21.8989 15.1801L21.5736 15.8094V20.8227C21.8669 21.0787 22.1123 21.3561 22.3203 21.6441L25.0029 16.8494C26.0216 16.4441 29.2109 15.0254 29.1683 13.1854C29.1363 12.0494 27.8509 11.0894 27.0883 10.6201ZM24.9496 14.3427L24.2669 15.6174L23.3283 15.1107L24.0109 13.8414C24.1496 13.5801 24.4696 13.4841 24.7309 13.6227C24.9923 13.7614 25.0883 14.0867 24.9496 14.3427Z" fill="#282828"/>
<path d="M7.98973 10.9614C10.2404 10.7214 12.1977 9.14272 13.2537 6.73739C13.4457 6.28939 13.8297 5.95872 14.3097 5.83072C14.4377 5.79339 14.5764 5.77739 14.7204 5.77739C15.0724 5.77739 15.4244 5.90006 15.6964 6.11872C17.4777 7.44139 18.6031 9.93206 18.6031 12.5987C18.6031 14.7694 17.8671 16.7267 16.6937 18.1081L16.8057 18.6947L17.4991 19.0094C17.6111 19.0627 17.7284 19.1001 17.8404 19.1267C18.9177 19.3561 19.7924 19.6761 20.5017 20.0707V11.1641C20.5071 6.80139 16.9551 3.24939 12.5924 3.24939C8.22973 3.24939 4.67773 6.80139 4.67773 11.1641V20.0654C5.38707 19.6761 6.2564 19.3507 7.33907 19.1214C7.4564 19.0947 7.5684 19.0574 7.65907 19.0201L8.36307 18.6894L8.47507 18.0867C7.3124 16.7054 6.58173 14.7587 6.58173 12.5987V12.5401L6.5924 12.4547C6.58707 12.4921 6.58707 12.5294 6.58707 12.5454C6.61373 11.7081 7.20573 11.0574 7.98973 10.9614Z" fill="#282828"/>
</svg>
