<svg width="32" height="32" viewBox="0 0 32 32" fill="none" xmlns="http://www.w3.org/2000/svg">
<path d="M12.5919 18.5066C15.3226 18.5066 17.5412 15.5946 17.5412 12.016C17.5412 9.67997 16.5866 7.51997 15.0399 6.37331C14.9767 6.32385 14.9027 6.28989 14.824 6.27414C14.7453 6.2584 14.664 6.26131 14.5866 6.28264C14.4266 6.32531 14.2986 6.43731 14.2346 6.58664C13.0239 9.34931 10.7412 11.1626 8.12258 11.44C7.86124 11.472 7.65858 11.696 7.64791 11.9626L7.64258 12.016C7.64258 15.5946 9.86658 18.5066 12.5919 18.5066Z" fill="#FFF2F1"/>
<path d="M10.4591 23.1626L9.30174 23.9146C9.52574 24.5333 10.9337 26.6666 12.6137 28.3253C14.3204 26.7093 15.6537 24.5653 15.8831 23.9146L14.7257 23.1626C14.6524 23.1156 14.592 23.0509 14.5501 22.9745C14.5081 22.8981 14.486 22.8124 14.4857 22.7253C14.4804 22.5493 14.5657 22.3786 14.7151 22.2773L16.2991 21.1786L15.7817 18.4159C14.8537 19.1466 13.7657 19.5733 12.5924 19.5733C11.4137 19.5733 10.3204 19.1413 9.39241 18.4053L8.88574 21.1786L10.4751 22.2773C10.6191 22.3786 10.7044 22.5493 10.7044 22.7253C10.6991 22.9013 10.6084 23.0666 10.4591 23.1626Z" fill="#FFF2F1"/>
<path d="M11.8029 29.024C9.57361 26.768 8.18161 23.92 8.15495 23.8133C8.12877 23.7062 8.13682 23.5935 8.17795 23.4911C8.21908 23.3888 8.29123 23.3019 8.38428 23.2426L9.21095 22.704L7.97361 21.8453C7.79228 21.7173 7.70695 21.488 7.76028 21.2746L8.11228 19.4026C7.94161 19.4826 7.75495 19.5413 7.56295 19.584C2.57628 20.6453 2.73095 23.6853 2.89095 26.9013C2.92295 27.52 2.94961 28.1546 2.94961 28.8C2.94961 29.0986 3.18961 29.3333 3.48295 29.3333H12.1176C12.0109 29.232 11.9043 29.1306 11.8029 29.024ZM17.6216 19.584C17.4243 19.5413 17.2376 19.4773 17.0616 19.3973L17.4243 21.2746C17.4829 21.488 17.3976 21.7173 17.2109 21.8453L15.9736 22.704L16.8056 23.2426C16.9976 23.3653 17.0883 23.5946 17.0349 23.8133C17.0083 23.9253 15.7229 26.8213 13.4083 29.0506C13.3123 29.1466 13.2109 29.2426 13.1043 29.3333H21.7016C21.9949 29.3333 22.2349 29.0986 22.2349 28.8C22.2349 28.1546 22.2669 27.52 22.2989 26.9013C22.4589 23.6853 22.6083 20.6453 17.6216 19.584ZM27.0883 10.0373C25.7389 9.21065 23.7923 8.55465 22.7043 9.06665C21.8989 9.45065 21.6216 10.4533 21.5736 11.52V12.256C21.6163 13.216 21.7923 14.1226 21.8989 14.5973L21.5736 15.2266V20.24C21.8669 20.496 22.1123 20.7733 22.3203 21.0613L25.0029 16.2666C26.0216 15.8613 29.2109 14.4426 29.1683 12.6026C29.1363 11.4666 27.8509 10.5066 27.0883 10.0373ZM24.9496 13.76L24.2669 15.0346L23.3283 14.528L24.0109 13.2586C24.1496 12.9973 24.4696 12.9013 24.7309 13.04C24.9923 13.1786 25.0883 13.504 24.9496 13.76Z" fill="#FFF2F1"/>
<path d="M7.98973 10.3786C10.2404 10.1386 12.1977 8.55996 13.2537 6.15463C13.4457 5.70663 13.8297 5.37596 14.3097 5.24796C14.4377 5.21063 14.5764 5.19463 14.7204 5.19463C15.0724 5.19463 15.4244 5.31729 15.6964 5.53596C17.4777 6.85863 18.6031 9.34929 18.6031 12.016C18.6031 14.1866 17.8671 16.144 16.6937 17.5253L16.8057 18.112L17.4991 18.4266C17.6111 18.48 17.7284 18.5173 17.8404 18.544C18.9177 18.7733 19.7924 19.0933 20.5017 19.488V10.5813C20.5071 6.21863 16.9551 2.66663 12.5924 2.66663C8.22973 2.66663 4.67773 6.21863 4.67773 10.5813V19.4826C5.38707 19.0933 6.2564 18.768 7.33907 18.5386C7.4564 18.512 7.5684 18.4746 7.65907 18.4373L8.36307 18.1066L8.47507 17.504C7.3124 16.1226 6.58173 14.176 6.58173 12.016V11.9573L6.5924 11.872C6.58707 11.9093 6.58707 11.9466 6.58707 11.9626C6.61373 11.1253 7.20573 10.4746 7.98973 10.3786Z" fill="#FFF2F1"/>
</svg>
