<svg width="32" height="33" viewBox="0 0 32 33" fill="none" xmlns="http://www.w3.org/2000/svg">
<path d="M22.4365 25.9806V26.2607H23.3545V25.979C23.6039 25.9705 23.8057 25.7652 23.8057 25.5138V22.2462H24.1089L30.9694 22.961C31.0023 22.9644 31.0348 22.9662 31.0672 22.9662C31.5394 22.9662 31.9446 22.6092 31.9947 22.1292C32.0481 21.6164 31.6757 21.1573 31.1629 21.1039L24.2542 20.384C24.2221 20.3806 24.1898 20.379 24.1575 20.379H22.7179C22.0986 22.5162 21.0738 24.1301 21.0586 24.1536L20.991 24.2586L20.879 24.2035C20.6173 24.0748 15.1013 21.3397 13.5317 18.7562L10.025 16.5719C9.58729 16.2994 9.01163 16.4332 8.73892 16.8707C8.46631 17.3084 8.60019 17.8842 9.03777 18.1568L15.341 22.0829V25.5137C15.341 25.7651 15.5428 25.9704 15.7922 25.9789V26.2606H16.7103V25.9805L22.4365 25.9806Z" fill="#282828"/>
<path d="M24.3283 20.1455L29.8162 20.5903C29.8418 20.5922 29.8674 20.5934 29.8926 20.5934C30.3741 20.5934 30.7826 20.2234 30.8222 19.7351C30.8638 19.2211 30.481 18.7708 29.967 18.7291L24.4414 18.2814C24.4163 18.2794 24.3911 18.2784 24.3659 18.2784H23.1333C23.0696 18.9227 22.9437 19.552 22.7831 20.1456H24.3283V20.1455ZM20.889 23.895C21.2466 23.3005 22.9344 20.3297 22.8992 17.2942C22.3736 17.3482 21.8887 17.3748 21.4382 17.3801L18.3133 19.5425C18.2828 19.5636 18.2509 19.5827 18.2178 19.5998C18.1018 19.6601 17.9737 19.6933 17.843 19.6969C17.7123 19.7005 17.5825 19.6743 17.4634 19.6204L14.7258 18.3904C14.2891 18.1942 14.0934 17.6793 14.2897 17.2425C14.3702 17.0639 14.5087 16.9175 14.6826 16.8273C14.7987 16.7669 14.9269 16.7337 15.0577 16.73C15.1885 16.7264 15.3183 16.7526 15.4375 16.8065L17.7281 17.8357L18.7757 17.1107C17.7158 16.8598 16.9746 16.4812 16.3852 16.1795C15.87 15.9161 15.4903 15.7218 15.1169 15.7218C14.718 15.7218 14.3264 15.9436 13.7847 16.54C13.4542 16.9037 13.3369 17.308 13.426 17.7756C13.8994 20.2605 19.977 23.432 20.889 23.895ZM12.294 13.9412C12.7919 13.9412 12.4418 14.408 12.9786 14.4547C13.5154 14.5014 13.8499 15.0655 13.6321 15.33C13.4143 15.5944 13.1653 15.9562 12.9786 16.1119C12.7919 16.2675 12.1967 16.3803 11.9166 16.1935C11.893 16.1778 11.8611 16.1577 11.824 16.1344L10.5387 16.1125C10.5594 16.1351 10.5781 16.1587 10.6 16.1806C11.4179 17.0029 12.7478 17.0064 13.5699 16.1884C14.3923 15.3707 14.3959 14.0409 13.5782 13.2185C12.7601 12.3959 11.4304 12.3927 10.6082 13.2106C10.2808 13.5361 10.0853 13.9432 10.0176 14.3668L11.209 14.387C11.3683 14.2753 11.8791 13.9412 12.294 13.9412Z" fill="#282828"/>
<path d="M17.7511 18.0811L15.35 17.0022C15.192 16.9319 15.0126 16.9271 14.851 16.9888C14.6895 17.0505 14.559 17.1737 14.4881 17.3314C14.4172 17.4892 14.4117 17.6686 14.4729 17.8303C14.534 17.9921 14.6568 18.123 14.8142 18.1944L17.5518 19.4245C17.6544 19.4706 17.7673 19.4894 17.8793 19.4791C17.9914 19.4688 18.0989 19.4298 18.1915 19.3658L21.3911 17.1516C21.6878 16.9462 21.762 16.5392 21.5566 16.2424C21.3512 15.9456 20.9436 15.8713 20.6472 16.0768L17.7511 18.0811ZM2.80953 19.9187C1.93698 19.7178 1.21474 19.477 0.693695 19.2772C0.617435 19.331 0.55517 19.4022 0.512122 19.485C0.469075 19.5678 0.446499 19.6596 0.446289 19.7529C0.446289 20.0739 0.708913 20.3364 1.02979 20.3364H2.89701V25.6736H1.77668C1.69628 25.6738 1.61925 25.7059 1.5624 25.7627C1.50555 25.8196 1.4735 25.8966 1.47326 25.977C1.4735 26.0574 1.50555 26.1344 1.5624 26.1913C1.61925 26.2481 1.69628 26.2802 1.77668 26.2804H4.76423C4.84463 26.2802 4.92166 26.2481 4.97851 26.1913C5.03536 26.1344 5.06741 26.0574 5.06765 25.977C5.06743 25.8966 5.03539 25.8196 4.97854 25.7627C4.92168 25.7058 4.84463 25.6738 4.76423 25.6736H3.6439V20.3364H3.81447L2.80953 19.9187ZM3.86638 20.1254L6.09537 21.0519L6.7629 25.6523C6.8304 26.1171 7.22942 26.4519 7.68568 26.4518C7.7303 26.4518 7.77549 26.4487 7.82096 26.4421C8.33117 26.3681 8.68482 25.8944 8.61079 25.3841L7.86708 20.2591C7.86661 20.2562 7.86568 20.2535 7.8653 20.2506C7.3478 20.3045 6.843 20.3289 6.35547 20.3289C5.46145 20.329 4.62484 20.2482 3.86638 20.1254Z" fill="#282828"/>
<path d="M8.20194 19.9297C6.80993 17.9359 6.72656 16.3771 6.9129 15.1389L5.09377 13.8443C5.00064 13.7784 4.9215 13.6947 4.86094 13.598C4.80038 13.5013 4.7596 13.3936 4.74096 13.2811C4.7217 13.1686 4.72493 13.0535 4.75046 12.9423C4.77599 12.8312 4.82331 12.7262 4.88968 12.6334C4.95578 12.5405 5.03954 12.4615 5.13616 12.401C5.23279 12.3405 5.34039 12.2996 5.45283 12.2806C5.56526 12.2617 5.68033 12.2651 5.79145 12.2906C5.90258 12.3161 6.00759 12.3633 6.10048 12.4294L7.30651 13.2877C7.43423 12.5297 7.33135 11.9595 6.41548 11.4363C5.81386 11.0924 5.22289 11.0447 4.60885 11.2903C2.11378 12.2883 0.273641 17.816 0 18.6787C0.627665 18.9796 4.0175 20.4779 8.20194 19.9297ZM7.37289 7.39896C7.27561 7.00553 6.92131 6.7135 6.49782 6.7135C6.25846 6.7135 6.0289 6.80859 5.85964 6.97784C5.69039 7.1471 5.5953 7.37666 5.5953 7.61602C5.5953 8.01084 5.84924 8.34554 6.20234 8.46803C6.20906 8.45515 6.21531 8.44208 6.22222 8.42938C6.47971 7.95847 6.88312 7.5995 7.37289 7.39896Z" fill="#282828"/>
<path d="M8.84627 11.5494C9.95918 11.2225 10.5964 10.0554 10.2695 8.94267C9.94265 7.8299 8.77548 7.19285 7.66257 7.51976C6.54965 7.84668 5.91244 9.01377 6.23931 10.1265C6.56618 11.2393 7.73336 11.8764 8.84627 11.5494Z" fill="#282828"/>
<path d="M5.97584 12.6044C5.90592 12.5546 5.82688 12.5191 5.74323 12.4999C5.65958 12.4807 5.57297 12.4781 5.48833 12.4924C5.4037 12.5066 5.3227 12.5374 5.24997 12.583C5.17724 12.6286 5.1142 12.688 5.06445 12.7579C5.01468 12.8279 4.97917 12.9069 4.95995 12.9906C4.94073 13.0742 4.93818 13.1608 4.95244 13.2455C4.96671 13.3301 4.9975 13.4111 5.04307 13.4838C5.08864 13.5565 5.14809 13.6196 5.21803 13.6693L8.13051 15.7419C8.23806 15.8185 8.36627 15.8607 8.49826 15.8629L12.3253 15.928C12.4986 15.9309 12.666 15.8649 12.7906 15.7444C12.9152 15.624 12.9869 15.459 12.9899 15.2857C12.9929 15.1124 12.9268 14.945 12.8064 14.8204C12.6859 14.6957 12.5209 14.6241 12.3476 14.6211L8.72317 14.5594L5.97584 12.6044Z" fill="#282828"/>
</svg>
