<svg width="32" height="32" viewBox="0 0 32 32" fill="none" xmlns="http://www.w3.org/2000/svg">
<path d="M22.4365 25.3978V25.6779H23.3545V25.3963C23.6039 25.3878 23.8057 25.1825 23.8057 24.931V21.6634H24.1089L30.9694 22.3783C31.0023 22.3816 31.0348 22.3834 31.0672 22.3834C31.5394 22.3834 31.9446 22.0264 31.9947 21.5464C32.0481 21.0336 31.6757 20.5745 31.1629 20.5211L24.2542 19.8012C24.2221 19.7979 24.1898 19.7962 24.1575 19.7962H22.7179C22.0986 21.9334 21.0738 23.5473 21.0586 23.5709L20.991 23.6758L20.879 23.6207C20.6173 23.4921 15.1013 20.757 13.5317 18.1734L10.025 15.9891C9.58729 15.7166 9.01163 15.8504 8.73892 16.288C8.46631 16.7256 8.60019 17.3014 9.03777 17.574L15.341 21.5001V24.931C15.341 25.1824 15.5428 25.3877 15.7922 25.3962V25.6778H16.7103V25.3978L22.4365 25.3978Z" fill="#FFF2F1"/>
<path d="M24.3283 19.5627L29.8162 20.0075C29.8418 20.0095 29.8674 20.0106 29.8926 20.0106C30.3741 20.0106 30.7826 19.6406 30.8222 19.1523C30.8638 18.6384 30.481 18.188 29.967 18.1464L24.4414 17.6986C24.4163 17.6966 24.3911 17.6956 24.3659 17.6956H23.1333C23.0696 18.3399 22.9437 18.9692 22.7831 19.5628H24.3283V19.5627ZM20.889 23.3122C21.2466 22.7178 22.9344 19.7469 22.8992 16.7114C22.3736 16.7655 21.8887 16.7921 21.4382 16.7973L18.3133 18.9597C18.2828 18.9808 18.2509 19 18.2178 19.017C18.1018 19.0774 17.9737 19.1106 17.843 19.1141C17.7123 19.1177 17.5825 19.0916 17.4634 19.0377L14.7258 17.8077C14.2891 17.6114 14.0934 17.0965 14.2897 16.6598C14.3702 16.4811 14.5087 16.3348 14.6826 16.2445C14.7987 16.1841 14.9269 16.1509 15.0577 16.1473C15.1885 16.1437 15.3183 16.1698 15.4375 16.2237L17.7281 17.2529L18.7757 16.528C17.7158 16.277 16.9746 15.8984 16.3852 15.5968C15.87 15.3333 15.4903 15.139 15.1169 15.139C14.718 15.139 14.3264 15.3609 13.7847 15.9572C13.4542 16.321 13.3369 16.7252 13.426 17.1929C13.8994 19.6778 19.977 22.8492 20.889 23.3122ZM12.294 13.3584C12.7919 13.3584 12.4418 13.8253 12.9786 13.8719C13.5154 13.9186 13.8499 14.4827 13.6321 14.7472C13.4143 15.0117 13.1653 15.3735 12.9786 15.5291C12.7919 15.6847 12.1967 15.7975 11.9166 15.6108C11.893 15.595 11.8611 15.5749 11.824 15.5516L10.5387 15.5297C10.5594 15.5523 10.5781 15.576 10.6 15.5978C11.4179 16.4201 12.7478 16.4237 13.5699 15.6056C14.3923 14.7879 14.3959 13.4582 13.5782 12.6357C12.7601 11.8131 11.4304 11.81 10.6082 12.6278C10.2808 12.9534 10.0853 13.3604 10.0176 13.784L11.209 13.8042C11.3683 13.6925 11.8791 13.3584 12.294 13.3584Z" fill="#FFF2F1"/>
<path d="M17.7511 17.4983L15.35 16.4195C15.192 16.3491 15.0126 16.3443 14.851 16.406C14.6895 16.4677 14.559 16.5909 14.4881 16.7487C14.4172 16.9064 14.4117 17.0858 14.4729 17.2476C14.534 17.4093 14.6568 17.5403 14.8142 17.6117L17.5518 18.8417C17.6544 18.8878 17.7673 18.9067 17.8793 18.8964C17.9914 18.8861 18.0989 18.847 18.1915 18.783L21.3911 16.5688C21.6878 16.3634 21.762 15.9564 21.5566 15.6596C21.3512 15.3628 20.9436 15.2885 20.6472 15.4941L17.7511 17.4983ZM2.80953 19.336C1.93698 19.1351 1.21474 18.8943 0.693695 18.6945C0.617435 18.7482 0.55517 18.8195 0.512122 18.9022C0.469075 18.985 0.446499 19.0769 0.446289 19.1702C0.446289 19.4911 0.708913 19.7537 1.02979 19.7537H2.89701V25.0908H1.77668C1.69628 25.0911 1.61925 25.1231 1.5624 25.18C1.50555 25.2368 1.4735 25.3138 1.47326 25.3942C1.4735 25.4746 1.50555 25.5517 1.5624 25.6085C1.61925 25.6654 1.69628 25.6974 1.77668 25.6977H4.76423C4.84463 25.6974 4.92166 25.6654 4.97851 25.6085C5.03536 25.5517 5.06741 25.4746 5.06765 25.3942C5.06743 25.3138 5.03539 25.2368 4.97854 25.1799C4.92168 25.1231 4.84463 25.091 4.76423 25.0908H3.6439V19.7537H3.81447L2.80953 19.336ZM3.86638 19.5427L6.09537 20.4692L6.7629 25.0695C6.8304 25.5344 7.22942 25.8692 7.68568 25.8691C7.7303 25.8691 7.77549 25.8659 7.82096 25.8594C8.33117 25.7853 8.68482 25.3116 8.61079 24.8013L7.86708 19.6764C7.86661 19.6735 7.86568 19.6708 7.8653 19.6679C7.3478 19.7217 6.843 19.7461 6.35547 19.7461C5.46145 19.7462 4.62484 19.6654 3.86638 19.5427Z" fill="#FFF2F1"/>
<path d="M8.20194 19.3469C6.80993 17.3531 6.72656 15.7943 6.9129 14.5561L5.09377 13.2615C5.00064 13.1957 4.9215 13.1119 4.86094 13.0153C4.80038 12.9186 4.7596 12.8109 4.74096 12.6983C4.7217 12.5859 4.72493 12.4708 4.75046 12.3596C4.77599 12.2484 4.82331 12.1434 4.88968 12.0507C4.95578 11.9578 5.03954 11.8788 5.13616 11.8182C5.23279 11.7577 5.34039 11.7168 5.45283 11.6979C5.56526 11.6789 5.68033 11.6823 5.79145 11.7078C5.90258 11.7334 6.00759 11.7805 6.10048 11.8467L7.30651 12.7049C7.43423 11.9469 7.33135 11.3768 6.41548 10.8535C5.81386 10.5096 5.22289 10.4619 4.60885 10.7076C2.11378 11.7055 0.273641 17.2332 0 18.096C0.627665 18.3969 4.0175 19.8951 8.20194 19.3469ZM7.37289 6.81619C7.27561 6.42277 6.92131 6.13074 6.49782 6.13074C6.25846 6.13074 6.0289 6.22582 5.85964 6.39508C5.69039 6.56433 5.5953 6.79389 5.5953 7.03326C5.5953 7.42808 5.84924 7.76278 6.20234 7.88527C6.20906 7.87238 6.21531 7.85931 6.22222 7.84662C6.47971 7.3757 6.88312 7.01673 7.37289 6.81619Z" fill="#FFF2F1"/>
<path d="M8.84627 10.9667C9.95918 10.6398 10.5964 9.47267 10.2695 8.3599C9.94265 7.24714 8.77548 6.61008 7.66257 6.937C6.54965 7.26391 5.91244 8.431 6.23931 9.54377C6.56618 10.6565 7.73336 11.2936 8.84627 10.9667Z" fill="#FFF2F1"/>
<path d="M5.97584 12.0216C5.90592 11.9718 5.82688 11.9363 5.74323 11.9171C5.65958 11.8979 5.57297 11.8953 5.48833 11.9096C5.4037 11.9239 5.3227 11.9547 5.24997 12.0002C5.17724 12.0458 5.1142 12.1052 5.06445 12.1752C5.01468 12.2451 4.97917 12.3241 4.95995 12.4078C4.94073 12.4914 4.93818 12.5781 4.95244 12.6627C4.96671 12.7473 4.9975 12.8283 5.04307 12.9011C5.08864 12.9738 5.14809 13.0368 5.21803 13.0866L8.13051 15.1592C8.23806 15.2357 8.36627 15.2779 8.49826 15.2802L12.3253 15.3453C12.4986 15.3481 12.666 15.2821 12.7906 15.1617C12.9152 15.0412 12.9869 14.8762 12.9899 14.7029C12.9929 14.5296 12.9268 14.3623 12.8064 14.2376C12.6859 14.113 12.5209 14.0413 12.3476 14.0383L8.72317 13.9767L5.97584 12.0216Z" fill="#FFF2F1"/>
</svg>
