<svg width="266" height="193" viewBox="0 0 266 193" fill="none" xmlns="http://www.w3.org/2000/svg">
<g clip-path="url(#clip0_31_990)">
<path fill-rule="evenodd" clip-rule="evenodd" d="M174.778 64.4401C174.778 64.4401 174.446 62.5321 176.108 62.4521C177.769 62.3721 182.576 62.5321 183.241 62.4521C183.906 62.3721 194.024 62.6983 199.994 64.9386C205.964 67.1789 209.257 74.94 210.826 79.6422C212.396 84.3506 214.119 92.4871 214.827 98.1433C215.535 103.799 214.944 113.099 214.944 113.099H181.025C181.025 113.099 179.61 112.982 179.142 110.391C178.668 107.8 174.784 64.4401 174.784 64.4401M78.4323 172.344H50.2622L57.9802 60.4457C57.9802 60.4457 57.5925 57.356 63.3841 57.7437C69.1695 58.1315 166.34 58.1684 182.201 58.1315C214.488 58.0515 218.501 83.0396 218.495 111.764C218.495 116.078 216.95 121.026 225.825 129.126C234.7 137.232 243.576 138.771 243.576 138.771C243.576 138.771 245.89 137.613 246.277 151.505C246.665 165.396 247.047 172.338 247.047 172.338C247.047 172.338 247.047 176.585 241.261 176.585C235.476 176.585 203.835 177.354 203.835 177.354C203.835 177.354 209.62 162.694 201.52 158.835C193.415 154.976 186.472 162.694 183.001 168.098C179.53 173.502 179.911 175.04 179.911 175.04L105.058 174.271C105.058 174.271 108.147 160.767 103.513 157.678C98.8844 154.588 91.1664 156.133 86.1503 161.537C81.1342 166.941 78.4323 172.338 78.4323 172.338V172.344Z" fill="#F8A3BC"/>
<path fill-rule="evenodd" clip-rule="evenodd" d="M98.6998 166.861C98.2074 166.461 95.6716 168.793 93.0436 172.061C90.4155 175.33 88.6799 178.308 89.1784 178.702C89.6708 179.102 92.2065 176.77 94.8346 173.502C97.4627 170.233 99.1983 167.255 98.6998 166.861ZM82.2975 179.736C82.2113 174.554 85.7256 170.332 89.8554 165.937C93.9852 161.543 96.2686 160.491 97.6781 160.312C99.0814 160.134 102.245 161.365 102.953 166.374C103.654 171.384 102.085 177.157 98.9213 180.586C96.5948 183.103 94.6869 186.322 90.9694 187.547C85.6518 189.301 82.3836 184.648 82.3036 179.73L82.2975 179.736Z" fill="black"/>
<path fill-rule="evenodd" clip-rule="evenodd" d="M197.212 167.47C196.72 167.187 194.922 169.833 193.199 173.385C191.476 176.936 190.473 180.044 190.965 180.327C191.457 180.61 193.255 177.964 194.978 174.413C196.701 170.861 197.704 167.753 197.212 167.47ZM185.21 182.543C184.275 177.681 186.607 173.083 189.439 168.209C192.27 163.334 194.067 161.925 195.249 161.506C196.43 161.088 199.36 161.672 200.794 166.258C202.228 170.843 201.828 176.554 199.674 180.346C198.086 183.134 196.972 186.506 193.975 188.328C189.679 190.938 186.097 187.153 185.21 182.543Z" fill="black"/>
<path fill-rule="evenodd" clip-rule="evenodd" d="M201.92 101.079C201.92 101.079 199.908 103.233 199.071 102.956C198.24 102.679 197.194 100.944 196.64 99.8974C196.086 98.8572 197.471 96.7031 200.32 93.5703C203.17 90.4438 207.41 87.3172 209.004 86.8309C210.605 86.3447 211.3 86.3447 211.996 86.7632C212.691 87.1818 213.805 88.7758 212.482 90.2407C211.774 91.0223 208.795 94.075 206.186 96.74L206.992 97.3309C206.992 97.3309 212.34 103.516 213.387 104.63C214.427 105.744 215.818 106.852 215.818 106.852L215.885 108.729L215.122 108.797C214.568 108.588 210.463 104.766 209.004 102.821C208.167 101.701 206.61 99.3189 205.447 97.4909C203.502 99.4789 201.92 101.079 201.92 101.079Z" fill="white"/>
<path fill-rule="evenodd" clip-rule="evenodd" d="M213.005 170.48C212.537 169.199 212.248 168.504 216.15 167.975C227.044 166.51 237.956 165.439 248.906 164.473C253.429 164.073 263.554 163.223 264.951 164.319C265.585 164.817 266.053 165.519 265.622 165.888C264.871 166.528 265.585 166.516 258.956 167.082C253.097 167.581 234.005 169.833 221.314 171.655C219.375 171.932 213.99 173.163 213.011 170.486" fill="black"/>
<path fill-rule="evenodd" clip-rule="evenodd" d="M213.368 159.493C210.869 159.721 209.017 150.791 211.7 148.489C212.045 148.193 212.937 147.947 213.183 148.39C213.429 148.833 214.174 151.954 214.864 152.495C215.559 153.037 216.642 154.176 216.642 154.176C216.642 154.176 214.697 159.438 213.362 159.493M209.232 159.444C209.232 159.444 206.425 155.85 206.838 151.061C207.25 146.273 210.352 144.962 210.992 144.851C211.626 144.741 214.02 144.63 214.507 145.338C214.993 146.045 214.765 146.722 215.177 147.061C215.59 147.399 216.747 147.732 217.498 148.483C218.249 149.233 219.067 150.428 218.021 154.28C216.968 158.158 214.211 164.269 209.226 159.444H209.232Z" fill="black"/>
<path fill-rule="evenodd" clip-rule="evenodd" d="M248.813 153.646C248.813 153.646 247.373 152.883 247.33 149.843C247.287 146.796 248.302 146.969 248.302 146.969C248.302 146.969 248.555 147.775 249.189 148.366C249.823 148.957 250.881 149.467 250.881 150.144C250.881 150.821 250.204 154.711 248.807 153.653M243.477 149.338C243.52 146.082 244.616 144.851 245.336 144.771C246.056 144.685 246.222 144.901 247.071 144.304C247.915 143.713 250.075 143.454 251.134 144.39C252.192 145.319 253.121 146.673 253.294 148.28C253.46 149.886 253.023 152.569 252.364 153.609C251.558 154.877 250.573 158.146 246.53 155.942C244.813 155.007 243.459 151.129 243.483 149.338H243.477Z" fill="black"/>
<path fill-rule="evenodd" clip-rule="evenodd" d="M86.3842 190.058C98.2751 190.058 107.913 190.525 107.913 191.104C107.913 191.683 98.2751 192.15 86.3842 192.15C74.4933 192.15 64.855 191.683 64.855 191.104C64.855 190.525 74.4933 190.058 86.3842 190.058Z" fill="black"/>
<path fill-rule="evenodd" clip-rule="evenodd" d="M188.774 190.058C200.665 190.058 210.303 190.525 210.303 191.104C210.303 191.683 200.665 192.15 188.774 192.15C176.883 192.15 167.245 191.683 167.245 191.104C167.245 190.525 176.883 190.058 188.774 190.058Z" fill="black"/>
<path fill-rule="evenodd" clip-rule="evenodd" d="M32.3397 172.012C32.3397 172.012 13.7217 176.523 10.8413 177.311C2.45855 179.601 3.67718 172.117 7.06227 169.169C8.5394 167.876 11.3644 167.55 12.4169 169.132C12.94 169.919 11.4998 162.706 16.6144 162.312C21.7289 161.918 22.7752 166.768 22.7752 166.768C26.1542 160.977 29.2315 163.623 30.6471 168.676C34.7277 167.876 42.3595 170.32 37.7558 171.095L32.3397 172.012Z" fill="black"/>
<path fill-rule="evenodd" clip-rule="evenodd" d="M49.0928 166.411C49.1113 166.842 48.6312 172.308 48.6312 172.308H43.8982C43.8982 172.308 44.9692 169.033 44.9138 167.384C44.8707 166.048 44.2552 166.774 43.9167 167.181C43.7751 167.353 43.8613 166.467 44.2983 166.368C45.6462 166.067 49.0928 166.411 49.0928 166.411Z" fill="black"/>
<path fill-rule="evenodd" clip-rule="evenodd" d="M55.0688 88.185H23.1689C23.1689 88.185 18.6206 86.8864 31.3978 86.8864C44.175 86.8864 55.0688 88.185 55.0688 88.185Z" fill="black"/>
<path fill-rule="evenodd" clip-rule="evenodd" d="M32.9057 81.3533H1.00586C1.00586 81.3533 -3.54247 80.0546 9.23471 80.0546C22.0119 80.0546 32.9057 81.3533 32.9057 81.3533Z" fill="black"/>
<path fill-rule="evenodd" clip-rule="evenodd" d="M49.419 75.6355H27.2559C27.2559 75.6355 22.7075 74.3369 35.4847 74.3369C40.6547 74.3369 45.523 74.5523 49.4805 74.8046L49.4251 75.6355H49.419Z" fill="black"/>
<path fill-rule="evenodd" clip-rule="evenodd" d="M209.042 30.0906V43.1386L204.45 31.5432L194.061 34.442L202.518 25.2592L189.229 21.394L204.936 20.9078L212.913 0.849609L210.98 24.773L225.475 27.4318L209.042 30.0906Z" fill="black"/>
<path fill-rule="evenodd" clip-rule="evenodd" d="M257.848 54.3525L258.661 63.0799L253.164 55.3249L248.148 58.7162L250.253 52.5738L241.526 48.6963L250.093 48.3701L253.164 35.9253L256.069 49.5026L263.831 50.1488L257.848 54.3525Z" fill="black"/>
<path fill-rule="evenodd" clip-rule="evenodd" d="M247.871 99.4604C246.807 100.137 243.218 101.984 243.218 101.984L245.446 95.8784L237.691 91.7116H245.446L246.899 83.2797L249.902 92.6841L257.368 94.1366L250.875 97.337L255.528 105.48L247.871 99.4666V99.4604Z" fill="black"/>
<path fill-rule="evenodd" clip-rule="evenodd" d="M41.467 26.1947C40.4022 26.8717 36.814 28.7181 36.814 28.7181L39.042 22.6127L31.2871 18.4459H39.042L40.4946 10.014L43.4981 19.4184L50.9637 20.8709L44.4705 24.0713L49.1235 32.214L41.467 26.2009V26.1947Z" fill="black"/>
<path fill-rule="evenodd" clip-rule="evenodd" d="M24.6524 56.2974L24.2154 61.0304L27.1943 56.8267L29.9085 58.667L28.7699 55.3373L33.4967 53.2385L28.8561 53.06L27.1943 46.3206L25.6187 53.6755L21.415 54.0263L24.6524 56.2974Z" fill="black"/>
<path fill-rule="evenodd" clip-rule="evenodd" d="M84.9809 30.62L83.2576 36.3069L88.5999 33.3773C88.5999 33.3773 92.7358 37.1686 92.5635 36.1346C92.3912 35.1006 91.7018 31.137 91.7018 31.137L100.829 28.3797L89.8062 27.1733L89.1169 17.0119L85.6702 27.3457L79.2939 28.7243L84.9809 30.62Z" fill="black"/>
<path d="M139.789 104.347H58.6328V124.836H139.789V104.347Z" fill="black"/>
<path d="M139.789 104.347H58.6328V124.836H139.789V104.347Z" stroke="black" stroke-width="0.350819" stroke-miterlimit="22.93"/>
<path fill-rule="evenodd" clip-rule="evenodd" d="M79.8725 109.88V109.696H79.177C79.177 109.77 79.1647 109.843 79.1463 109.905L75.9951 118.946L72.8869 109.948C72.8623 109.874 72.85 109.782 72.8315 109.696H72.1607V109.954V110.01L70.6528 119.186C70.6281 119.291 70.5974 119.396 70.5728 119.5H70.8189C70.8189 119.463 70.8189 119.426 70.8189 119.389V119.34C70.8189 119.291 70.8189 119.235 70.8251 119.18L72.2961 110.508L75.355 119.236C75.3857 119.316 75.4104 119.408 75.4165 119.494H76.0504C76.0628 119.377 76.0874 119.266 76.1243 119.155L79.2078 110.237L80.5803 119.217C80.5803 119.272 80.5865 119.322 80.5865 119.377C80.5865 119.414 80.5865 119.457 80.5803 119.494H81.3127C81.2943 119.402 81.2758 119.303 81.2512 119.211L79.8602 109.874L79.8725 109.88ZM84.1993 109.696H83.4299C83.4484 109.813 83.4607 109.936 83.4607 110.053V119.131C83.4607 119.254 83.4484 119.371 83.4299 119.494H84.1993C84.1808 119.377 84.1747 119.248 84.1747 119.131V110.053C84.1747 109.936 84.1747 109.813 84.1993 109.696ZM90.4094 114.718C90.0278 114.478 89.6031 114.256 89.2031 114.053C88.6615 113.782 87.9106 113.382 87.4921 112.945C87.1659 112.607 87.012 112.195 87.012 111.727C87.012 111.259 87.1782 110.828 87.5044 110.477C87.9229 110.022 88.4768 109.85 89.0861 109.85C89.7816 109.85 90.4463 110.127 91.0249 110.496L91.1972 110.028C90.5756 109.745 89.917 109.573 89.2277 109.573C88.2368 109.573 87.3259 109.85 86.735 110.687C86.4642 111.074 86.3227 111.499 86.3227 111.973C86.3227 112.558 86.5319 113.056 86.9443 113.475C87.3936 113.918 88.0952 114.306 88.6491 114.595C89.1046 114.829 89.8247 115.173 90.2186 115.5C90.7479 115.93 91.0249 116.484 91.0249 117.168C91.0249 117.715 90.8525 118.202 90.4832 118.608C90.0155 119.119 89.3939 119.316 88.7107 119.316C88.0706 119.316 87.4797 119.137 86.9504 118.768C86.7843 118.645 86.6181 118.515 86.4581 118.38L86.2673 118.971C86.9997 119.389 87.7936 119.654 88.6491 119.654C89.7508 119.654 90.7048 119.297 91.3018 118.337C91.5665 117.912 91.7019 117.457 91.7019 116.958C91.7019 116.294 91.4618 115.727 91.0187 115.241C90.8402 115.044 90.6248 114.878 90.4032 114.736L90.4094 114.718ZM97.0811 114.718C96.6995 114.478 96.2748 114.256 95.8748 114.053C95.3332 113.782 94.5823 113.382 94.1638 112.945C93.8376 112.607 93.6837 112.195 93.6837 111.727C93.6837 111.259 93.8499 110.828 94.1761 110.477C94.5946 110.022 95.1485 109.85 95.7578 109.85C96.4533 109.85 97.118 110.127 97.7027 110.496L97.8751 110.028C97.2534 109.745 96.5949 109.573 95.9055 109.573C94.9146 109.573 94.0037 109.85 93.4129 110.687C93.1359 111.074 93.0005 111.499 93.0005 111.973C93.0005 112.558 93.2098 113.056 93.6221 113.475C94.0714 113.918 94.7731 114.306 95.327 114.595C95.7824 114.829 96.5026 115.173 96.8965 115.5C97.4258 115.93 97.7027 116.484 97.7027 117.168C97.7027 117.715 97.5304 118.202 97.1611 118.608C96.6933 119.119 96.0717 119.316 95.3886 119.316C94.7485 119.316 94.1576 119.137 93.6283 118.768C93.4621 118.645 93.2959 118.515 93.1359 118.38L92.9451 118.971C93.6775 119.389 94.4715 119.654 95.327 119.654C96.4287 119.654 97.3827 119.297 97.9797 118.337C98.2443 117.912 98.3797 117.457 98.3797 116.958C98.3797 116.294 98.1397 115.727 97.6966 115.241C97.5181 115.044 97.3027 114.878 97.0811 114.736V114.718ZM104.541 111.025C103.679 111.991 103.402 113.259 103.402 114.527C103.402 115.937 103.71 117.364 104.719 118.398C105.605 119.309 106.787 119.629 108.036 119.629C108.443 119.629 108.867 119.599 109.261 119.494C109.631 119.396 109.988 119.229 110.32 119.045V118.38C110.049 118.645 109.735 118.897 109.403 119.051C109.009 119.236 108.572 119.297 108.141 119.297C106.966 119.297 105.993 118.866 105.267 117.943C104.498 116.971 104.221 115.777 104.221 114.558C104.221 113.407 104.461 112.268 105.119 111.308C105.821 110.268 106.867 109.843 108.104 109.843C108.523 109.843 108.954 109.893 109.347 110.047C109.692 110.182 110.024 110.403 110.326 110.637V109.942C109.667 109.683 108.972 109.554 108.264 109.554C106.842 109.554 105.513 109.93 104.547 111.025H104.541ZM113.053 109.696H112.283C112.302 109.813 112.314 109.936 112.314 110.053V119.131C112.314 119.254 112.302 119.371 112.283 119.494H113.053C113.034 119.377 113.028 119.248 113.028 119.131V110.053C113.028 109.936 113.028 109.813 113.053 109.696ZM117.656 114.736L117.878 114.724C118.672 114.675 119.564 114.496 120.198 113.973C120.752 113.518 120.974 112.902 120.974 112.201C120.974 111.696 120.838 111.234 120.543 110.822C120.278 110.447 119.934 110.176 119.509 109.997C118.998 109.776 118.438 109.69 117.884 109.69H115.828C115.847 109.806 115.859 109.93 115.859 110.053V119.131C115.859 119.254 115.847 119.371 115.828 119.494H116.604C116.585 119.377 116.573 119.254 116.573 119.131V109.923H117.539C118.13 109.923 118.795 110.016 119.293 110.36C119.589 110.57 119.817 110.847 119.983 111.173C120.149 111.511 120.229 111.874 120.229 112.256C120.229 113.099 119.884 113.758 119.146 114.182C118.696 114.441 118.204 114.558 117.687 114.558H116.592L120.604 119.131C120.703 119.242 120.801 119.365 120.869 119.5H121.903C121.841 119.445 121.78 119.389 121.725 119.328L117.656 114.743V114.736ZM127.412 114.552C127.553 114.552 127.701 114.552 127.848 114.57V114.324C127.701 114.355 127.547 114.367 127.399 114.367H124.162V109.923H127.51C127.621 109.923 127.732 109.936 127.842 109.96V109.69H123.423C123.442 109.813 123.448 109.942 123.448 110.059V119.131C123.448 119.254 123.442 119.371 123.423 119.488H127.842V119.155C127.701 119.18 127.553 119.199 127.418 119.211H124.156V114.552H127.405H127.412Z" fill="white"/>
</g>
<defs>
<clipPath id="clip0_31_990">
<rect width="265.563" height="191.301" fill="white" transform="translate(0.218262 0.849609)"/>
</clipPath>
</defs>
</svg>
