<svg width="30" height="30" viewBox="0 0 30 30" fill="none" xmlns="http://www.w3.org/2000/svg">
<g clip-path="url(#clip0_643_32310)">
<path d="M17.4173 24.8445H1.14258V26.6637H18.496M3.07176 23.2724V24.7888M15.0286 24.7888V15.6256M15.0286 15.6256H3.35058C3.27663 15.6256 3.20571 15.655 3.15342 15.7073C3.10113 15.7596 3.07176 15.8305 3.07176 15.9045V21.3206M15.0286 15.6256V7.82986C15.0286 7.75592 14.9992 7.685 14.9469 7.63271C14.8946 7.58042 14.8237 7.55104 14.7498 7.55104H4.97406C4.90011 7.55104 4.82919 7.58042 4.7769 7.63271C4.72461 7.685 4.69523 7.75592 4.69523 7.82986V10.853M4.69523 12.8048V15.5141M12.1898 5.76066V7.49528M24.5573 11.5326V1.24757C24.5573 1.17362 24.5279 1.1027 24.4756 1.05042C24.4233 0.998126 24.3524 0.96875 24.2784 0.96875H12.1898V3.8089M16.4685 11.5949H15.0844M26.9284 18.4028V11.5949H18.4202" stroke="#F8A3BC" stroke-width="1.12396" stroke-miterlimit="10" stroke-linecap="round" stroke-linejoin="round"/>
<path d="M21.9713 11.6486V13.9906H19.9573V11.6486M19.6313 1.00391V3.81338H17.2715V1.00391M10.8689 7.63109V9.97304H8.85497V7.63109M10.8689 15.6859V18.0279H8.85497V15.6859M5.09995 26.7213C5.24535 26.9307 5.32308 27.1797 5.32267 27.4347C5.32267 28.127 4.76146 28.6883 4.06914 28.6883C3.37682 28.6883 2.81555 28.127 2.81555 27.4347C2.81555 27.1732 2.89563 26.9305 3.03259 26.7295" stroke="#F8A3BC" stroke-width="1.12396" stroke-miterlimit="10" stroke-linecap="round" stroke-linejoin="round"/>
<path d="M22.9844 28.684C26.2282 28.684 28.8577 26.0544 28.8577 22.8107C28.8577 19.567 26.2282 16.9375 22.9844 16.9375C19.7407 16.9375 17.1112 19.567 17.1112 22.8107C17.1112 26.0544 19.7407 28.684 22.9844 28.684Z" stroke="#F8A3BC" stroke-width="1.12396" stroke-miterlimit="10" stroke-linecap="round" stroke-linejoin="round"/>
<path d="M20.3093 25.483L25.6595 20.1328" stroke="#F8A3BC" stroke-width="1.12396" stroke-miterlimit="10" stroke-linecap="round" stroke-linejoin="round"/>
<path d="M21.1155 21.889C21.6382 21.889 22.0619 21.4652 22.0619 20.9425C22.0619 20.4198 21.6382 19.9961 21.1155 19.9961C20.5928 19.9961 20.1691 20.4198 20.1691 20.9425C20.1691 21.4652 20.5928 21.889 21.1155 21.889Z" stroke="#F8A3BC" stroke-width="1.12396" stroke-miterlimit="10" stroke-linecap="round" stroke-linejoin="round"/>
<path d="M24.8535 25.6272C25.3762 25.6272 25.8 25.2035 25.8 24.6808C25.8 24.1581 25.3762 23.7344 24.8535 23.7344C24.3308 23.7344 23.9071 24.1581 23.9071 24.6808C23.9071 25.2035 24.3308 25.6272 24.8535 25.6272Z" stroke="#F8A3BC" stroke-width="1.12396" stroke-miterlimit="10" stroke-linecap="round" stroke-linejoin="round"/>
</g>
<defs>
<clipPath id="clip0_643_32310">
<rect width="28.5515" height="28.5515" fill="white" transform="translate(0.724243 0.550781)"/>
</clipPath>
</defs>
</svg>
