<svg width="30" height="30" viewBox="0 0 30 30" fill="none" xmlns="http://www.w3.org/2000/svg">
<g clip-path="url(#clip0_643_32300)">
<path d="M26.764 0.691406H2.94273C1.71947 0.691406 0.724243 1.68658 0.724243 2.90984V16.3218C0.724243 17.5451 1.71947 18.5403 2.94273 18.5403H8.4298C8.73902 18.5403 8.98962 18.2896 8.98962 17.9804C8.98962 17.6713 8.73896 17.4206 8.42975 17.4206H2.94273C2.33685 17.4206 1.84394 16.9277 1.84394 16.3218V2.90984C1.84394 2.30395 2.33685 1.81105 2.94273 1.81105H26.764C27.3699 1.81105 27.8628 2.30395 27.8628 2.90984V16.3218C27.8628 16.9277 27.3699 17.4206 26.764 17.4206H25.0829C24.7736 17.4206 24.523 17.6713 24.523 17.9804C24.523 18.2896 24.7737 18.5403 25.0829 18.5403H26.764C27.9873 18.5403 28.9825 17.5451 28.9825 16.3218V2.90984C28.9825 1.68658 27.9873 0.691406 26.764 0.691406Z" fill="#F8A3BC"/>
<path d="M29.2754 21.2605C29.269 21.0456 29.1985 20.8374 29.0728 20.6628C28.9472 20.4883 28.7722 20.3553 28.5703 20.281V20.2809L19.3107 16.8457C18.6837 16.6131 18.0004 16.7623 17.5275 17.2351C17.0545 17.7079 16.9051 18.3912 17.1376 19.0182L20.5641 28.2626C20.7184 28.6788 21.1048 28.9557 21.5486 28.9681C21.5589 28.9684 21.5692 28.9685 21.5795 28.9685C22.0108 28.9685 22.3976 28.7161 22.5707 28.3186L23.5186 26.1426L25.5735 28.1982C26.1583 28.7832 27.1102 28.7834 27.6953 28.1985L28.488 27.406C28.7714 27.1226 28.9275 26.7459 28.9276 26.3451C28.9276 25.9444 28.7716 25.5676 28.4883 25.2842L26.4593 23.2547L28.635 22.2835C28.8316 22.1963 28.9977 22.0523 29.1118 21.87C29.2259 21.6877 29.2829 21.4755 29.2754 21.2605ZM25.26 22.5639C25.1771 22.6009 25.1044 22.6575 25.0483 22.7288C24.9921 22.8001 24.9542 22.884 24.9377 22.9733C24.9212 23.0626 24.9266 23.1545 24.9535 23.2412C24.9805 23.3279 25.0281 23.4067 25.0922 23.4709L27.6964 26.0759C27.7677 26.1473 27.8077 26.2441 27.8077 26.345C27.8077 26.4459 27.7677 26.5427 27.6964 26.6142L26.9037 27.4067C26.8684 27.4421 26.8265 27.4702 26.7803 27.4894C26.7341 27.5085 26.6846 27.5183 26.6346 27.5181H26.6345C26.5845 27.5183 26.535 27.5085 26.4888 27.4893C26.4425 27.4702 26.4006 27.4421 26.3653 27.4066L23.7294 24.7699C23.6649 24.7054 23.5856 24.6576 23.4985 24.6307C23.4113 24.6038 23.3189 24.5986 23.2293 24.6156C23.1396 24.6326 23.0555 24.6712 22.9842 24.7281C22.9129 24.7851 22.8566 24.8585 22.8202 24.9422L21.5816 27.7858L18.1875 18.6291C18.0694 18.3106 18.2584 18.0877 18.3191 18.027C18.3659 17.9802 18.5089 17.8574 18.7177 17.8574C18.78 17.8574 18.8482 17.8683 18.9213 17.8955L28.0944 21.2986L25.26 22.5639ZM28.1813 21.3309C28.1812 21.3308 28.181 21.3307 28.1809 21.3307L28.3756 20.8058L28.1813 21.3309ZM16.669 15.5821L15.0871 14C14.8685 13.7815 14.514 13.7815 14.2954 14C14.0767 14.2187 14.0767 14.5731 14.2953 14.7918L15.8773 16.3738C15.9292 16.4259 15.9909 16.4672 16.0589 16.4953C16.1268 16.5234 16.1996 16.5379 16.2732 16.5378C16.4164 16.5378 16.5597 16.4831 16.669 16.3738C16.8877 16.1552 16.8877 15.8007 16.669 15.5821ZM15.1172 17.4263H12.8799C12.5707 17.4263 12.3201 17.6769 12.3201 17.9861C12.3201 18.2953 12.5707 18.5459 12.8799 18.5459H15.1172C15.4263 18.5459 15.677 18.2953 15.677 17.9861C15.677 17.6769 15.4263 17.4263 15.1172 17.4263ZM18.3296 11.9766C18.0204 11.9766 17.7698 12.2272 17.7698 12.5364V14.7737C17.7698 15.0828 18.0204 15.3335 18.3296 15.3335C18.6388 15.3335 18.8894 15.0828 18.8894 14.7737V12.5364C18.8894 12.2272 18.6388 11.9766 18.3296 11.9766ZM23.0296 13.0166C22.811 12.798 22.4565 12.798 22.2379 13.0166L20.6559 14.5986C20.4372 14.8172 20.4372 15.1717 20.6558 15.3903C20.7078 15.4424 20.7695 15.4836 20.8374 15.5118C20.9054 15.5399 20.9782 15.5544 21.0518 15.5543C21.195 15.5543 21.3383 15.4996 21.4476 15.3903L23.0296 13.8083C23.2483 13.5897 23.2483 13.2352 23.0296 13.0166ZM16.0198 20.0263C15.8012 19.8078 15.4467 19.8078 15.2281 20.0263L13.6461 21.6083C13.4274 21.827 13.4275 22.1814 13.6461 22.4001C13.698 22.4522 13.7597 22.4934 13.8277 22.5216C13.8956 22.5497 13.9684 22.5641 14.042 22.564C14.1853 22.564 14.3285 22.5094 14.4378 22.4001L16.0198 20.818C16.2385 20.5994 16.2384 20.245 16.0198 20.0263Z" fill="#F8A3BC"/>
<path d="M10.6509 18.545C10.961 18.545 11.2125 18.2936 11.2125 17.9834C11.2125 17.6733 10.961 17.4219 10.6509 17.4219C10.3408 17.4219 10.0894 17.6733 10.0894 17.9834C10.0894 18.2936 10.3408 18.545 10.6509 18.545Z" fill="#F8A3BC"/>
<path d="M10.5536 8.95269C11.0442 8.73972 11.3404 8.23985 11.3404 7.48078C11.3404 6.1663 10.4425 5.85156 9.47976 5.85156H7.69317C7.42472 5.85156 7.16553 5.98116 7.16553 6.2311V12.2481C7.16553 12.4426 7.36918 12.6184 7.69317 12.6184H9.65564C10.7017 12.6184 11.507 12.1 11.507 10.656V10.4616C11.507 9.53582 11.1182 9.17486 10.5536 8.95269ZM8.35967 6.90685H9.38719C9.85929 6.90685 10.137 7.20302 10.137 7.68443C10.137 8.15648 9.89632 8.48047 9.39645 8.48047H8.35967V6.90685ZM10.3037 10.5541C10.3037 11.2576 9.97043 11.5631 9.40576 11.5631H8.35973V9.42474H9.40576C9.97043 9.42474 10.3037 9.68393 10.3037 10.406V10.5541ZM16.1818 5.85156C15.8763 5.85156 15.5801 5.96265 15.5801 6.22184V10.5541C15.5801 11.2761 15.2005 11.6186 14.5618 11.6186C13.9231 11.6186 13.5436 11.2761 13.5436 10.5541V6.22184C13.5436 5.96259 13.2381 5.85156 12.9419 5.85156C12.6364 5.85156 12.3402 5.96265 12.3402 6.22184V10.5541C12.3402 12.1 13.3121 12.674 14.5618 12.674C15.8022 12.674 16.7835 12.1 16.7835 10.5541V6.22184C16.7835 5.96259 16.478 5.85156 16.1818 5.85156ZM21.7451 5.85156C21.5507 5.85156 21.4674 5.93487 21.3841 6.09219L19.9678 8.7675L18.5608 6.09219C18.4774 5.92562 18.3849 5.85156 18.1905 5.85156C17.8665 5.85156 17.3944 6.05516 17.3944 6.35144C17.3944 6.37921 17.4036 6.42549 17.4222 6.47178L19.3383 9.78576C19.3568 9.81353 19.3661 9.85981 19.3661 9.9061V12.2388C19.3661 12.4888 19.6716 12.6184 19.9678 12.6184C20.2733 12.6184 20.5695 12.4888 20.5695 12.2388V9.9061C20.5695 9.85981 20.588 9.81353 20.6065 9.78576L22.5135 6.47178C22.5412 6.42549 22.5412 6.37921 22.5412 6.35144C22.5412 6.05516 22.0691 5.85156 21.7451 5.85156Z" fill="#F8A3BC"/>
</g>
<defs>
<clipPath id="clip0_643_32300">
<rect width="28.5515" height="28.5515" fill="white" transform="translate(0.724243 0.550781)"/>
</clipPath>
</defs>
</svg>
