<svg width="30" height="29" viewBox="0 0 30 29" fill="none" xmlns="http://www.w3.org/2000/svg">
<path d="M27.5793 15.2711C27.2715 15.2064 26.9532 15.2102 26.6469 15.2821C26.3407 15.3541 26.054 15.4925 25.8072 15.6875C25.6928 15.3656 25.5026 15.076 25.2527 14.8431C25.0027 14.6102 24.7004 14.4409 24.3712 14.3495C24.042 14.2581 23.6957 14.2473 23.3615 14.318C23.0272 14.3888 22.7149 14.5389 22.451 14.7558C22.4034 14.7934 22.361 14.8324 22.3187 14.8733C22.1719 14.6118 21.9709 14.3847 21.7292 14.2071C21.4875 14.0295 21.2107 13.9056 20.9173 13.8436C20.6376 13.7849 20.3491 13.7825 20.0685 13.8364C19.7878 13.8903 19.5207 13.9995 19.2827 14.1576V10.8933C20.4683 10.3517 21.4328 9.42061 22.0158 8.2548C22.5988 7.08899 22.765 5.75874 22.487 4.4853C22.209 3.21187 21.5033 2.07199 20.4875 1.25526C19.4717 0.438531 18.2069 -0.00582387 16.9034 -0.00390003H6.43454C4.92008 -0.00390003 3.46764 0.597719 2.39675 1.66861C1.32586 2.7395 0.724243 4.19193 0.724243 5.7064C0.724243 7.22086 1.32586 8.6733 2.39675 9.74419C3.46764 10.8151 4.92008 11.4167 6.43454 11.4167H14.9943L14.9876 16.7887L13.2869 13.9012C13.0477 13.4949 12.6813 13.1786 12.2445 13.0012C11.8076 12.8239 11.3245 12.7952 10.8697 12.9198C10.415 13.0443 10.0139 13.315 9.72829 13.6902C9.44272 14.0654 9.28859 14.5241 9.28969 14.9956C9.29148 15.338 9.37294 15.6752 9.52762 15.9807L14.4409 25.464C14.9205 26.3947 15.6477 27.175 16.5422 27.719C17.4368 28.2631 18.4641 28.5498 19.5111 28.5476H23.5654C25.0794 28.546 26.5309 27.9438 27.6014 26.8733C28.672 25.8027 29.2741 24.3513 29.2757 22.8373V17.4125C29.2813 16.9152 29.1157 16.4311 28.8069 16.0413C28.4981 15.6514 28.0647 15.3796 27.5793 15.2711ZM6.43454 10.465C5.17249 10.465 3.96212 9.96363 3.06972 9.07123C2.17731 8.17882 1.67596 6.96845 1.67596 5.7064C1.67596 4.44434 2.17731 3.23398 3.06972 2.34157C3.96212 1.44917 5.17249 0.947817 6.43454 0.947817H16.9034C17.9529 0.942546 18.9746 1.28502 19.8088 1.92175C20.6431 2.55847 21.243 3.45359 21.5148 4.46727C21.7866 5.48095 21.715 6.55611 21.3112 7.5248C20.9073 8.49349 20.1941 9.30115 19.2827 9.82162V6.46777C19.2917 6.05885 19.1834 5.6559 18.9706 5.3066C18.7578 4.95729 18.4494 4.67624 18.0819 4.49669C17.7144 4.31714 17.3031 4.24661 16.8968 4.29342C16.4904 4.34024 16.106 4.50245 15.789 4.76087C15.5422 4.96121 15.3432 5.21417 15.2067 5.50126C15.0702 5.78834 14.9996 6.1023 15 6.42019L14.9952 10.465H6.43454ZM28.324 22.8373C28.3226 24.0989 27.8208 25.3085 26.9287 26.2006C26.0366 27.0927 24.8271 27.5945 23.5654 27.5959H19.5111C18.6385 27.5979 17.7823 27.359 17.0368 26.9056C16.2912 26.4523 15.6852 25.8019 15.2855 25.0262L10.3766 15.5481C10.2894 15.3767 10.2431 15.1874 10.2414 14.9952C10.2403 14.7323 10.3258 14.4765 10.4847 14.2672C10.6437 14.0578 10.8671 13.9067 11.1206 13.8372C11.374 13.7677 11.6433 13.7837 11.8868 13.8826C12.1303 13.9816 12.3344 14.158 12.4675 14.3846L15.0514 18.7725C15.1043 18.8625 15.1854 18.9326 15.2821 18.972C15.3788 19.0114 15.4858 19.0179 15.5866 18.9904C15.6874 18.963 15.7763 18.9032 15.8397 18.8202C15.9031 18.7372 15.9374 18.6357 15.9374 18.5313L15.9517 6.42019C15.9521 6.24248 15.9923 6.0671 16.0691 5.90688C16.146 5.74667 16.2577 5.60565 16.3961 5.49414C16.5345 5.38263 16.696 5.30344 16.8689 5.26236C17.0418 5.22129 17.2217 5.21936 17.3955 5.25671C17.6666 5.32078 17.9075 5.47604 18.0778 5.69651C18.2481 5.91697 18.3375 6.18926 18.331 6.46777V15.9374C18.331 16.0636 18.3811 16.1846 18.4704 16.2738C18.5596 16.3631 18.6807 16.4132 18.8069 16.4132C18.9331 16.4132 19.0541 16.3631 19.1433 16.2738C19.2326 16.1846 19.2827 16.0636 19.2827 15.9374C19.2831 15.7596 19.3233 15.5843 19.4002 15.424C19.477 15.2638 19.5888 15.1228 19.7271 15.0113C19.8655 14.8998 20.027 14.8206 20.1999 14.7795C20.3728 14.7385 20.5527 14.7365 20.7265 14.7739C20.9976 14.8379 21.2385 14.9932 21.4088 15.2137C21.5791 15.4341 21.6685 15.7064 21.662 15.9849V16.4132C21.662 16.5394 21.7121 16.6605 21.8014 16.7497C21.8906 16.8389 22.0117 16.8891 22.1379 16.8891C22.2641 16.8891 22.3851 16.8389 22.4743 16.7497C22.5636 16.6605 22.6137 16.5394 22.6137 16.4132C22.6141 16.2355 22.6543 16.0601 22.7312 15.8999C22.808 15.7397 22.9198 15.5987 23.0581 15.4872C23.1965 15.3757 23.358 15.2965 23.5309 15.2554C23.7038 15.2143 23.8837 15.2124 24.0575 15.2497C24.3286 15.3138 24.5695 15.4691 24.7398 15.6895C24.9101 15.91 24.9995 16.1823 24.993 16.4608V17.3649C24.993 17.4911 25.0432 17.6122 25.1324 17.7014C25.2216 17.7906 25.3427 17.8408 25.4689 17.8408C25.5951 17.8408 25.7161 17.7906 25.8054 17.7014C25.8946 17.6122 25.9447 17.4911 25.9447 17.3649C25.9452 17.1872 25.9853 17.0118 26.0622 16.8516C26.1391 16.6914 26.2508 16.5504 26.3891 16.4389C26.5275 16.3274 26.6891 16.2482 26.862 16.2071C27.0349 16.166 27.2147 16.1641 27.3885 16.2015C27.6596 16.2655 27.9005 16.4208 28.0708 16.6412C28.2411 16.8617 28.3305 17.134 28.324 17.4125V22.8373Z" fill="#F8A3BC"/>
<path d="M13.192 3.51847L10.6661 6.8866L10.1022 6.3227C10.0125 6.23602 9.89227 6.18806 9.7675 6.18914C9.64273 6.19023 9.52338 6.24027 9.43515 6.3285C9.34692 6.41673 9.29688 6.53608 9.29579 6.66085C9.29471 6.78562 9.34267 6.90582 9.42936 6.99557L10.3811 7.94728C10.4703 8.03653 10.5913 8.08668 10.7175 8.08671H10.7513C10.8194 8.08173 10.8856 8.06215 10.9455 8.02931C11.0053 7.99646 11.0574 7.95112 11.0982 7.89637L13.9533 4.0895C14.0291 3.98854 14.0616 3.86163 14.0437 3.73669C14.0259 3.61175 13.9591 3.49902 13.8582 3.4233C13.7572 3.34758 13.6303 3.31506 13.5054 3.33291C13.3804 3.35076 13.2677 3.41751 13.192 3.51847Z" fill="#F8A3BC"/>
</svg>
