<svg width="24" height="25" viewBox="0 0 24 25" fill="none" xmlns="http://www.w3.org/2000/svg">
<path d="M13.7845 0.496094C10.5683 0.496094 7.70615 2.01986 5.87846 4.38289C5.20789 4.90289 4.60424 5.50376 4.08702 6.17572C1.73794 8.0048 0.222534 10.8544 0.222534 14.0581C0.222534 19.5732 4.70044 24.0511 10.2156 24.0511C13.4192 24.0511 16.2688 22.5357 18.0979 20.1866C18.7699 19.6694 19.3707 19.0657 19.8907 18.3952C22.2538 16.5675 23.7775 13.7053 23.7775 10.4891C23.7775 4.97399 19.2996 0.496094 13.7845 0.496094ZM13.7845 1.20988C18.9134 1.20988 23.0637 5.36016 23.0637 10.4891C23.0637 12.5245 22.4071 14.4038 21.296 15.9317C21.7435 14.7969 21.9931 13.5645 21.9931 12.2736C21.9931 6.75846 17.5152 2.28056 12 2.28056C10.7091 2.28056 9.47668 2.53011 8.34187 2.97762C9.86982 1.86651 11.7491 1.20988 13.7845 1.20988ZM12 2.99435C17.129 2.99435 21.2793 7.14463 21.2793 12.2736C21.2793 14.309 20.6226 16.1883 19.5115 17.7162C19.959 16.5828 20.2086 15.349 20.2086 14.0581C20.2086 8.54293 15.7307 4.06503 10.2156 4.06503C8.92461 4.06503 7.69081 4.31458 6.5574 4.76209C8.08535 3.65098 9.96462 2.99435 12 2.99435ZM10.2156 4.77882C15.3445 4.77882 19.4948 8.9291 19.4948 14.0581C19.4948 19.187 15.3445 23.3373 10.2156 23.3373C5.08661 23.3373 0.936322 19.187 0.936322 14.0581C0.936322 8.9291 5.08661 4.77882 10.2156 4.77882ZM10.2156 5.8495C10.019 5.8495 9.85866 6.00982 9.85866 6.20639C9.85866 6.40296 10.019 6.56329 10.2156 6.56329C10.4121 6.56329 10.5725 6.40296 10.5725 6.20639C10.5725 6.00982 10.4121 5.8495 10.2156 5.8495ZM8.18573 6.11717C8.17736 6.11717 8.169 6.11717 8.16203 6.11717C8.13693 6.11996 8.11463 6.12275 8.09093 6.12972C7.89993 6.1813 7.78701 6.37648 7.83859 6.56747C7.89017 6.75707 8.08535 6.86999 8.27495 6.8198C8.46594 6.76822 8.57887 6.57305 8.52728 6.38205C8.48685 6.2273 8.34744 6.11856 8.18573 6.11717ZM12.2454 6.11717C12.0851 6.11856 11.9443 6.2273 11.9038 6.38205C11.8523 6.57305 11.9652 6.76822 12.1562 6.8198C12.3458 6.86999 12.5409 6.75707 12.5925 6.56747C12.6441 6.37648 12.5312 6.1813 12.3402 6.12972C12.3095 6.12135 12.2775 6.11717 12.2454 6.11717ZM6.28136 6.90206C6.22142 6.90206 6.16286 6.91879 6.11128 6.94806C5.9412 7.04705 5.88125 7.26592 5.98023 7.436C6.02763 7.51826 6.1057 7.5782 6.19772 7.6033C6.28833 7.627 6.38592 7.61445 6.46817 7.56705C6.55043 7.51965 6.61037 7.44158 6.63407 7.34957C6.65917 7.25895 6.64662 7.16136 6.59783 7.07911C6.5337 6.96619 6.41102 6.89787 6.28136 6.90206ZM14.1247 6.90206C14.0034 6.90763 13.8932 6.97455 13.8319 7.0805C13.7845 7.16136 13.7719 7.25895 13.7956 7.35096C13.8207 7.44297 13.8807 7.52104 13.9629 7.56705C14.0438 7.61584 14.1414 7.62839 14.2334 7.6033C14.3254 7.5782 14.4035 7.51826 14.4495 7.4374C14.5485 7.26592 14.4899 7.04844 14.3198 6.94946C14.2599 6.9146 14.1916 6.89927 14.1247 6.90206ZM4.66837 8.1484C4.57218 8.147 4.47877 8.18464 4.41046 8.25296C4.27244 8.39237 4.27244 8.61961 4.41046 8.75902C4.54987 8.89704 4.77711 8.89704 4.91652 8.75902C5.05454 8.61961 5.05454 8.39237 4.91652 8.25296C4.84961 8.18743 4.76178 8.15119 4.66837 8.1484ZM15.7725 8.1484C15.6763 8.1484 15.5829 8.18604 15.5146 8.25296C15.3766 8.39237 15.3766 8.61961 15.5146 8.75902C15.654 8.89704 15.8812 8.89704 16.0207 8.75902C16.1587 8.61961 16.1587 8.39237 16.0207 8.25296C15.9537 8.18743 15.8659 8.14979 15.7725 8.1484ZM9.88794 9.62337V10.3093C8.5468 10.4334 7.73403 11.1931 7.73403 12.3405C7.73403 13.308 8.33908 13.973 9.44601 14.2574L9.88794 14.3703V16.6344C9.14767 16.5507 8.67088 16.1381 8.62069 15.547H7.56953C7.5751 16.6999 8.46734 17.4792 9.88794 17.5726V18.2181H10.5683V17.5684C12.0223 17.4444 12.863 16.6846 12.863 15.4675C12.863 14.44 12.2761 13.8099 11.0297 13.506L10.5683 13.4014V11.2629C11.2235 11.3423 11.671 11.7689 11.6905 12.314H12.7278C12.6971 11.2071 11.8536 10.4222 10.5683 10.3093V9.62337H9.88794ZM17.0063 9.77533C16.9464 9.77672 16.8878 9.79345 16.8362 9.82273C16.6661 9.92171 16.6076 10.1392 16.7066 10.3107C16.8042 10.4808 17.023 10.5393 17.1931 10.4403C17.2754 10.3943 17.3353 10.3162 17.3604 10.2242C17.3841 10.1322 17.3716 10.0346 17.3242 9.95378C17.2586 9.84085 17.1373 9.77254 17.0063 9.77533ZM3.39972 9.77533C3.27704 9.78091 3.16691 9.84782 3.10557 9.95378C3.00798 10.1239 3.06653 10.3427 3.23801 10.4403C3.40809 10.5393 3.62557 10.4808 3.72455 10.3107C3.82354 10.1406 3.76498 9.92171 3.5949 9.82412C3.53495 9.78927 3.46664 9.77254 3.39972 9.77533ZM9.88794 11.2573V13.2592C9.17276 13.1142 8.79495 12.7615 8.79495 12.2513C8.79495 11.709 9.25222 11.2921 9.88794 11.2573ZM2.62738 11.6699C2.46706 11.6713 2.32765 11.7787 2.28583 11.9334C2.23564 12.1244 2.34856 12.3196 2.53816 12.3712C2.72916 12.4228 2.92433 12.3098 2.97591 12.1188C3.00101 12.0268 2.98846 11.9292 2.94106 11.847C2.89366 11.7661 2.81559 11.7062 2.72358 11.6811C2.69291 11.6727 2.66084 11.6685 2.62738 11.6699ZM17.8023 11.6699C17.794 11.6685 17.7856 11.6699 17.7772 11.6699C17.7535 11.6713 17.7298 11.6755 17.7061 11.6825C17.5165 11.7327 17.4036 11.9278 17.4538 12.1188C17.5054 12.3098 17.7006 12.4228 17.8916 12.3712C18.0826 12.3196 18.1955 12.1244 18.1439 11.9334C18.1021 11.7787 17.9627 11.6713 17.8023 11.6699ZM2.3639 13.7012C2.16733 13.7012 2.007 13.8615 2.007 14.0581C2.007 14.2546 2.16733 14.4149 2.3639 14.4149C2.56047 14.4149 2.72079 14.2546 2.72079 14.0581C2.72079 13.8615 2.56047 13.7012 2.3639 13.7012ZM18.0672 13.7012C17.8706 13.7012 17.7103 13.8615 17.7103 14.0581C17.7103 14.2546 17.8706 14.4149 18.0672 14.4149C18.2638 14.4149 18.4241 14.2546 18.4241 14.0581C18.4241 13.8615 18.2638 13.7012 18.0672 13.7012ZM10.5683 14.5C11.4117 14.6687 11.8049 15.0116 11.8049 15.5818C11.8049 16.2134 11.3532 16.5995 10.5683 16.6455V14.5ZM2.63436 15.7324C2.62599 15.7324 2.61763 15.7338 2.60926 15.7338C2.58556 15.7352 2.56186 15.7394 2.53816 15.7463C2.34856 15.7965 2.23564 15.9917 2.28583 16.1827C2.33741 16.3737 2.53258 16.4866 2.72358 16.435C2.91457 16.3834 3.0275 16.1883 2.97591 15.9987C2.93409 15.8425 2.79468 15.7352 2.63436 15.7324ZM17.7954 15.7338C17.635 15.7352 17.4956 15.8439 17.4538 15.9987C17.4036 16.1897 17.5165 16.3848 17.7061 16.435C17.8971 16.4866 18.0923 16.3737 18.1439 16.1827C18.1955 15.9931 18.0826 15.7979 17.8916 15.7463C17.8609 15.738 17.8288 15.7338 17.7954 15.7338ZM3.4067 17.627C3.34814 17.6284 3.28959 17.6451 3.23801 17.6744C3.06653 17.7734 3.00798 17.9909 3.10557 18.1623C3.15297 18.2432 3.23104 18.3031 3.32305 18.3282C3.41506 18.3533 3.51265 18.3408 3.5949 18.292C3.67576 18.246 3.73571 18.1679 3.7608 18.0759C3.7845 17.9839 3.77195 17.8863 3.72455 17.8054C3.65903 17.6925 3.53774 17.6242 3.4067 17.627ZM16.9979 17.627C16.8766 17.634 16.7665 17.7009 16.7066 17.8054C16.6076 17.9769 16.6661 18.1944 16.8362 18.2934C16.9185 18.3408 17.0161 18.3533 17.1067 18.3296C17.1987 18.3045 17.2768 18.2446 17.3242 18.1623C17.3716 18.0815 17.3841 17.9839 17.3604 17.8919C17.3353 17.7999 17.2754 17.7218 17.1931 17.6758C17.1346 17.6409 17.0662 17.6242 16.9979 17.627ZM4.66837 19.2539C4.57218 19.2511 4.47877 19.2888 4.41046 19.3571C4.34354 19.424 4.3059 19.5146 4.3059 19.6094C4.3059 19.7042 4.34354 19.7948 4.41046 19.8632C4.55126 20.0012 4.77711 20.0012 4.91652 19.8618C5.05454 19.7223 5.05454 19.4965 4.91652 19.3571C4.84961 19.2916 4.76178 19.2539 4.66837 19.2539ZM15.7725 19.2539C15.6763 19.2511 15.5829 19.2888 15.5146 19.3571C15.3752 19.4965 15.3752 19.7237 15.5146 19.8632C15.654 20.0012 15.8799 20.0012 16.0193 19.8632C16.1587 19.7237 16.1587 19.4965 16.0193 19.3571C15.9537 19.2916 15.8659 19.2553 15.7725 19.2539ZM14.1316 20.5003C14.0731 20.5017 14.0145 20.5184 13.9629 20.5491C13.7915 20.6466 13.7329 20.8655 13.8319 21.0356C13.9309 21.2057 14.1484 21.2656 14.3198 21.1667C14.4007 21.1193 14.4606 21.0412 14.4857 20.9492C14.5108 20.8586 14.4983 20.761 14.4495 20.6787C14.3854 20.5658 14.2627 20.4975 14.1316 20.5003ZM6.273 20.5017C6.15171 20.5072 6.04157 20.5742 5.98023 20.6787C5.93283 20.761 5.92029 20.8586 5.94399 20.9506C5.96908 21.0426 6.02903 21.1206 6.11128 21.168C6.28136 21.2656 6.50024 21.2071 6.59783 21.0356C6.69681 20.8655 6.63826 20.648 6.46817 20.5491C6.40823 20.5142 6.34131 20.4989 6.273 20.5017ZM12.251 21.2852C12.2412 21.2852 12.2328 21.2852 12.2245 21.2852C12.2008 21.2879 12.1785 21.2907 12.1548 21.2977C11.9638 21.3493 11.8509 21.5445 11.9024 21.7355C11.954 21.9251 12.1492 22.038 12.3402 21.9878C12.5298 21.9362 12.6427 21.741 12.5911 21.55C12.5507 21.3953 12.4113 21.2865 12.251 21.2852ZM8.18015 21.2852C8.01983 21.2865 7.87902 21.3953 7.83859 21.55C7.78701 21.741 7.89993 21.9362 8.09093 21.9878C8.28053 22.038 8.4757 21.9251 8.52728 21.7355C8.57887 21.5445 8.46594 21.3493 8.27495 21.2977C8.24428 21.2893 8.21221 21.2852 8.18015 21.2852ZM10.2156 21.5528C10.019 21.5528 9.85866 21.7131 9.85866 21.9097C9.85866 22.1063 10.019 22.2666 10.2156 22.2666C10.4121 22.2666 10.5725 22.1063 10.5725 21.9097C10.5725 21.7131 10.4121 21.5528 10.2156 21.5528Z" fill="#F8A3BC"/>
</svg>
