<svg width="21" height="20" viewBox="0 0 21 20" fill="none" xmlns="http://www.w3.org/2000/svg">
<path d="M6.08707 17.7527H8.02256V18.3979H6.08707V17.7527ZM6.08707 19.043H8.02256V19.6882H6.08707V19.043ZM8.66772 19.043H9.31288V19.6882H8.66772V19.043ZM9.43606 6.22501L10.9258 5.84525L12.4155 6.22468L12.5322 4.62505L13.3236 3.27327L11.9239 2.66751L10.9258 1.43335L9.92731 2.66747L8.52772 3.27323L9.31901 4.62501L9.43606 6.22501ZM10.3293 3.19626L10.9258 2.45912L11.5223 3.19658L12.399 3.57634L11.9 4.42876L11.8283 5.40977L10.9258 5.17973L10.0232 5.4094L9.95159 4.42843L9.4526 3.57581L10.3293 3.19626ZM4.46772 6.88339L4.93647 6.08311L4.10606 5.72335L3.50643 4.98182L2.90679 5.72303L2.07639 6.08279L2.54514 6.88311L2.61445 7.83759L3.50643 7.61077L4.39872 7.83791L4.46772 6.88339ZM3.83546 6.68654L3.81086 7.02235L3.50643 6.94501L3.20227 7.02235L3.17739 6.68654L3.00098 6.38493L3.30844 6.25178L3.50643 6.00755L3.70409 6.25214L4.01155 6.38541L3.83546 6.68654ZM19.3064 6.88339L19.7752 6.08311L18.9448 5.72335L18.3451 4.98182L17.7455 5.72303L16.9151 6.08279L17.3838 6.88311L17.4532 7.83759L18.3451 7.61077L19.2374 7.83791L19.3064 6.88339ZM18.6742 6.68654L18.6496 7.02235L18.3451 6.94501L18.041 7.02235L18.0164 6.68654L17.84 6.38493L18.1475 6.25178L18.3451 6.00755L18.5428 6.25214L18.8503 6.38541L18.6742 6.68654ZM4.94026 8.66626C5.55401 9.07521 6.10084 9.57662 6.56135 10.1527L7.83905 11.7492L7.57477 9.63557C7.43679 8.53206 6.84735 7.5163 5.95776 6.84924L5.64872 6.61755L4.70316 8.50811L4.94026 8.66626ZM5.87001 7.61787C6.4155 8.13404 6.78546 8.8211 6.91227 9.5644C6.50531 9.08639 6.04219 8.65918 5.53296 8.29202L5.87001 7.61787ZM14.2768 9.63557L14.0125 11.7492L15.2902 10.1524C15.7508 9.57637 16.2976 9.07498 16.9113 8.66593L17.1481 8.50783L16.2025 6.61723L15.8935 6.84956C15.0042 7.51662 14.4145 8.53206 14.2768 9.63557ZM16.3186 8.29202C15.8092 8.65901 15.3461 9.08623 14.9393 9.5644C15.0664 8.8211 15.4361 8.13404 15.9815 7.61787L16.3186 8.29202ZM12.2161 11.9463H12.8613V10.5946C12.8613 9.04525 13.4074 7.5369 14.3997 6.3463L13.9038 5.93331C12.8154 7.23952 12.2161 8.89501 12.2161 10.5946V11.9463ZM14.4742 4.84948H15.1193V5.49464H14.4742V4.84948ZM15.4419 3.55916H16.0871V4.20432H15.4419V3.55916ZM8.9903 11.9463H9.63546V10.5946C9.63546 8.89464 9.03614 7.23952 7.94804 5.93331L7.45219 6.3463C8.44421 7.5369 8.9903 9.04525 8.9903 10.5947V11.9463ZM6.73223 4.84948H7.37739V5.49464H6.73223V4.84948ZM5.76449 3.55916H6.40965V4.20432H5.76449V3.55916ZM10.6032 6.46239H11.2484V7.10755H10.6032V6.46239ZM10.6032 7.75271H11.2484V11.9463H10.6032V7.75271ZM19.6355 9.68819H20.2806V10.3334H19.6355V9.68819ZM19.6355 10.9785H20.2806V11.6237H19.6355V10.9785ZM20.2806 10.3334H20.9258V10.9785H20.2806V10.3334ZM18.9903 10.3334H19.6355V10.9785H18.9903V10.3334ZM18.6677 0.978516H19.3129V1.62368H18.6677V0.978516ZM18.6677 2.26884H19.3129V2.914H18.6677V2.26884ZM19.3129 1.62368H19.958V2.26884H19.3129V1.62368ZM18.0226 1.62368H18.6677V2.26884H18.0226V1.62368ZM1.57094 10.9785H2.2161V11.6237H1.57094V10.9785ZM1.57094 12.2688H2.2161V12.914H1.57094V12.2688ZM2.2161 11.6237H2.86127V12.2688H2.2161V11.6237ZM0.925781 11.6237H1.57094V12.2688H0.925781V11.6237ZM1.57094 0.978516H2.2161V1.62368H1.57094V0.978516ZM1.57094 2.26884H2.2161V2.914H1.57094V2.26884ZM2.2161 1.62368H2.86127V2.26884H2.2161V1.62368ZM0.925781 1.62368H1.57094V2.26884H0.925781V1.62368Z" fill="#F8A3BC"/>
</svg>
