<svg width="20" height="21" viewBox="0 0 20 21" fill="none" xmlns="http://www.w3.org/2000/svg">
<path d="M18.6698 11.2376C18.6301 11.157 18.6094 11.0684 18.6094 10.9786C18.6094 10.8888 18.6301 10.8001 18.6698 10.7195L19.4157 9.19358C19.831 8.34394 19.502 7.33125 18.6666 6.88801L17.1662 6.09192C17.0867 6.05007 17.0179 5.99051 16.9651 5.91784C16.9123 5.84517 16.8769 5.76134 16.8617 5.67282L16.5682 3.99982C16.4048 3.06834 15.5432 2.44241 14.607 2.57487L12.9252 2.81276C12.8363 2.82561 12.7457 2.81785 12.6602 2.79009C12.5748 2.76233 12.4969 2.7153 12.4325 2.65264L11.2118 1.47171C10.5321 0.814137 9.46725 0.814098 8.78757 1.47171L7.56679 2.65276C7.50242 2.7154 7.42452 2.76242 7.33909 2.79018C7.25367 2.81795 7.163 2.82571 7.0741 2.81288L5.39235 2.57499C4.45584 2.44245 3.59451 3.06846 3.43112 3.99994L3.13768 5.67286C3.12243 5.76138 3.08704 5.84521 3.03425 5.91789C2.98145 5.99056 2.91266 6.05013 2.83319 6.092L1.33281 6.88809C0.497422 7.33129 0.168361 8.34405 0.583671 9.1937L1.32957 10.7196C1.36927 10.8002 1.38992 10.8888 1.38992 10.9787C1.38992 11.0685 1.36927 11.1571 1.32957 11.2377L0.583632 12.7636C0.168322 13.6133 0.497382 14.626 1.33277 15.0692L2.83315 15.8653C2.91263 15.9071 2.98143 15.9667 3.03423 16.0394C3.08703 16.112 3.12243 16.1959 3.13768 16.2844L3.43112 17.9574C3.57986 18.8054 4.30697 19.4 5.14263 19.4C5.22493 19.4 5.30845 19.3942 5.39239 19.3823L7.07414 19.1444C7.16304 19.1316 7.25371 19.1393 7.33914 19.1671C7.42457 19.1948 7.50248 19.2419 7.56683 19.3045L8.78757 20.4855C9.12749 20.8143 9.5635 20.9787 9.99967 20.9786C10.4357 20.9786 10.872 20.8142 11.2118 20.4855L12.4325 19.3045C12.5643 19.1772 12.7438 19.119 12.9252 19.1444L14.607 19.3823C15.5436 19.5148 16.4048 18.8888 16.5682 17.9574L16.8617 16.2844C16.877 16.1959 16.9123 16.1121 16.9651 16.0394C17.0179 15.9667 17.0867 15.9072 17.1662 15.8653L18.6666 15.0692C19.502 14.626 19.831 13.6132 19.4157 12.7636L18.6698 11.2376ZM18.1259 14.0502L16.6255 14.8463C16.1472 15.1001 15.8191 15.5516 15.7255 16.0851L15.4321 17.758C15.4062 17.909 15.3224 18.044 15.1984 18.1341C15.0744 18.2241 14.9202 18.2622 14.7685 18.2401L13.0868 18.0022C12.5505 17.9263 12.0198 18.0989 11.6305 18.4754L10.4097 19.6563C10.3 19.7632 10.1529 19.8231 9.99965 19.8231C9.84643 19.8231 9.69927 19.7632 9.58956 19.6563L8.36882 18.4754C8.03984 18.1571 7.60976 17.9847 7.16078 17.9847C7.07852 17.9847 6.99559 17.9904 6.91254 18.0022L5.23079 18.2401C5.07917 18.2621 4.92494 18.224 4.80098 18.134C4.67703 18.0439 4.59315 17.909 4.56724 17.758L4.27377 16.085C4.18017 15.5516 3.85213 15.1 3.37373 14.8462L1.87335 14.0502C1.73771 13.9789 1.63528 13.8574 1.58792 13.7117C1.54057 13.566 1.55204 13.4075 1.61988 13.2701L2.36581 11.7442C2.60362 11.2576 2.60362 10.6995 2.36581 10.213L1.61988 8.68702C1.55204 8.54963 1.54057 8.39116 1.58792 8.24544C1.63528 8.09971 1.73771 7.97825 1.87335 7.90699L3.37373 7.1109C3.85209 6.85703 4.18017 6.40555 4.27373 5.87212L4.56716 4.19916C4.59304 4.04813 4.6769 3.91319 4.80087 3.82312C4.92483 3.73305 5.07908 3.69499 5.23071 3.71705L6.91246 3.95494C7.44859 4.03084 7.97949 3.8583 8.36874 3.48178L9.58952 2.30085C9.69923 2.19389 9.84639 2.13403 9.99961 2.13403C10.1528 2.13403 10.3 2.19389 10.4097 2.30085L11.6304 3.48178C12.0197 3.85834 12.5505 4.03084 13.0867 3.95494L14.7685 3.71705C14.9201 3.69501 15.0743 3.73308 15.1983 3.82315C15.3223 3.91321 15.4061 4.04814 15.432 4.19916L15.7255 5.87215C15.8191 6.40559 16.1471 6.85711 16.6255 7.1109L18.1259 7.90699C18.2615 7.97825 18.3639 8.09971 18.4113 8.24544C18.4587 8.39116 18.4472 8.54963 18.3793 8.68702L17.6334 10.2129C17.3956 10.6995 17.3956 11.2576 17.6334 11.7441L18.3793 13.27C18.4472 13.4074 18.4587 13.5659 18.4113 13.7117C18.364 13.8574 18.2616 13.9789 18.1259 14.0502Z" fill="#F8A3BC"/>
<path d="M14.2142 6.76415C13.989 6.53892 13.6237 6.53892 13.3985 6.76415L5.7857 14.377C5.56047 14.6022 5.56047 14.9674 5.7857 15.1927C5.8392 15.2463 5.90276 15.2888 5.97275 15.3178C6.04273 15.3468 6.11776 15.3617 6.19351 15.3616C6.34109 15.3616 6.48874 15.3053 6.60132 15.1927L14.2141 7.57985C14.4394 7.35458 14.4394 6.98943 14.2142 6.76415ZM7.69292 5.7876C6.52683 5.7876 5.57812 6.7363 5.57812 7.90239C5.57812 9.06848 6.52683 10.0172 7.69292 10.0172C8.859 10.0172 9.80771 9.06848 9.80771 7.90239C9.80771 6.7363 8.859 5.7876 7.69292 5.7876ZM7.69292 8.86363C7.16288 8.86363 6.73167 8.43243 6.73167 7.90235C6.73167 7.37231 7.16288 6.94111 7.69292 6.94111C8.22295 6.94111 8.6542 7.37231 8.6542 7.90235C8.65416 8.43243 8.22295 8.86363 7.69292 8.86363ZM12.307 11.9397C11.1409 11.9397 10.1922 12.8884 10.1922 14.0545C10.1922 15.2205 11.1409 16.1693 12.307 16.1693C13.473 16.1693 14.4217 15.2205 14.4217 14.0545C14.4217 12.8884 13.473 11.9397 12.307 11.9397ZM12.307 15.0157C11.7769 15.0157 11.3457 14.5845 11.3457 14.0545C11.3457 13.5244 11.7769 13.0932 12.307 13.0932C12.837 13.0932 13.2682 13.5244 13.2682 14.0545C13.2682 14.5845 12.837 15.0157 12.307 15.0157Z" fill="#F8A3BC"/>
</svg>
