<svg width="21" height="21" viewBox="0 0 21 21" fill="none" xmlns="http://www.w3.org/2000/svg">
<g clip-path="url(#clip0_23_1613)">
<path d="M16.4375 4.70264C16.4375 4.65534 16.3989 4.6167 16.3516 4.6167C16.3043 4.6167 16.2656 4.65534 16.2656 4.70264C16.2656 4.74993 16.3043 4.78857 16.3516 4.78857C16.3989 4.78857 16.4375 4.74993 16.4375 4.70264Z" fill="#F8A3BC" stroke="#F8A3BC"/>
<path d="M19.1214 10.7187C19.238 10.6021 19.3305 10.4637 19.3936 10.3114C19.4567 10.1591 19.4892 9.99578 19.4892 9.8309V2.81971C19.4892 2.65487 19.4568 2.49164 19.3937 2.33936C19.3306 2.18708 19.2381 2.04874 19.1214 1.93225C19.0049 1.81562 18.8666 1.7231 18.7143 1.66C18.5621 1.59689 18.3988 1.56443 18.234 1.56448H11.2228C11.0579 1.56447 10.8946 1.59694 10.7423 1.66005C10.59 1.72315 10.4516 1.81565 10.335 1.93225L1.02898 11.2383C0.538516 11.7288 0.538516 12.5233 1.02898 13.0135L8.04021 20.0247C8.53037 20.5152 9.3249 20.5152 9.8154 20.0247L19.1214 10.7187Z" stroke="#F8A3BC" stroke-miterlimit="10" stroke-linecap="round" stroke-linejoin="round"/>
<path d="M10.0755 6.17268C10.7684 6.17268 11.3307 6.73534 11.3307 7.42787C11.3307 8.12076 10.7684 8.68311 10.0755 8.68311C9.38265 8.68311 8.82031 8.12076 8.82031 7.42787C8.82031 6.73534 9.38265 6.17268 10.0755 6.17268Z" stroke="#F8A3BC" stroke-miterlimit="10" stroke-linecap="round" stroke-linejoin="round"/>
<path d="M10.0755 13.2733C10.7684 13.2733 11.3307 13.8356 11.3307 14.5285C11.3307 15.221 10.7684 15.7837 10.0755 15.7837C9.38265 15.7837 8.82031 15.221 8.82031 14.5285C8.82031 13.8356 9.38265 13.2733 10.0755 13.2733Z" stroke="#F8A3BC" stroke-miterlimit="10" stroke-linecap="round" stroke-linejoin="round"/>
<path d="M6.30957 10.9785H13.8408" stroke="#F8A3BC" stroke-miterlimit="10" stroke-linecap="round" stroke-linejoin="round"/>
</g>
<defs>
<clipPath id="clip0_23_1613">
<rect width="20" height="20" fill="white" transform="translate(0.0751953 0.978516)"/>
</clipPath>
</defs>
</svg>
